<svg id="Layer_1" data-name="Layer 1" xmlns="http://www.w3.org/2000/svg" viewBox="0 0 26.84 29.35"><defs><style>.cls-1{fill:#231f20;stroke:#231f20;stroke-miterlimit:10;}</style></defs><path class="cls-1" d="M14.94,0l8.39,24a12,12,0,0,0,1.25,2.7,2.93,2.93,0,0,0,1.13,1.06,5.11,5.11,0,0,0,1.38.29v.31H18V28a7.14,7.14,0,0,0,2.17-.26c.5-.18.76-.66.76-1.45a5.6,5.6,0,0,0-.37-1.73.56.56,0,0,1-.07-.23L18,16.94H8.25L6,23.82a7.61,7.61,0,0,0-.46,2.26,1.76,1.76,0,0,0,.59,1.57A3,3,0,0,0,7.83,28v.31H1.25V28A3.34,3.34,0,0,0,3.51,27,8.14,8.14,0,0,0,5,24.11L12.89,0ZM8.57,15.93h8.92L12.93,2.64h-.08Z" transform="translate(-0.75 0.5)"/></svg>