<svg id="Layer_1" data-name="Layer 1" xmlns="http://www.w3.org/2000/svg" viewBox="0 0 414.39 454.54"><defs><style>.cls-1{fill:#231f20;stroke:#231f20;stroke-miterlimit:10;}</style></defs><path class="cls-1" d="M239.09,0,373.24,383.88q10.63,29.82,20.07,43.2T411.41,444q8.67,3.51,22.06,4.72v4.86H287.15v-4.86q22.52,0,34.68-4.26T334,421.3q0-10.33-5.78-27.68A9.2,9.2,0,0,1,327,390L287.15,271H132L96.43,381.15q-7.31,22.52-7.3,36.19,0,18.87,9.43,25.1t26.77,6.24v4.86H20.08v-4.86q22.5-2.13,36-17.19T79.7,385.71L206.24,0ZM137.19,254.91H279.85l-73-212.63h-1.22Z" transform="translate(-19.58 0.5)"/></svg>