<svg id="Layer_1" data-name="Layer 1" xmlns="http://www.w3.org/2000/svg" viewBox="0 0 52.67 57.69"><defs><style>.cls-1{fill:#231f20;stroke:#231f20;stroke-miterlimit:10;}</style></defs><path class="cls-1" d="M29.89,0,46.65,48a24.06,24.06,0,0,0,2.51,5.39,5.75,5.75,0,0,0,2.27,2.12,9.85,9.85,0,0,0,2.75.58v.61H35.89v-.61a13.63,13.63,0,0,0,4.34-.53c1-.35,1.52-1.32,1.52-2.89A11.73,11.73,0,0,0,41,49.2a1.15,1.15,0,0,1-.15-.45l-5-14.87H16.5L12.05,47.64a15.87,15.87,0,0,0-.91,4.53c0,1.57.39,2.62,1.18,3.14a6.15,6.15,0,0,0,3.35.77v.61H2.51v-.61A6.64,6.64,0,0,0,7,53.94,16.17,16.17,0,0,0,10,48.21L25.78,0ZM17.15,31.86H35L25.86,5.29H25.7Z" transform="translate(-2.01 0.5)"/></svg>