<svg id="Layer_1" data-name="Layer 1" xmlns="http://www.w3.org/2000/svg" viewBox="0 0 103.35 113.39"><defs><style>.cls-1{fill:#231f20;}</style></defs><path class="cls-1" d="M59.77,0,93.31,96a47.49,47.49,0,0,0,5,10.8q2.36,3.35,4.52,4.22a19.8,19.8,0,0,0,5.52,1.18v1.22H71.79v-1.22a27.43,27.43,0,0,0,8.67-1.07c2-.71,3-2.63,3-5.78a23.15,23.15,0,0,0-1.45-6.92,2.34,2.34,0,0,1-.3-.91l-10-29.73H33L24.11,95.29a31,31,0,0,0-1.83,9q0,4.71,2.36,6.27a12.08,12.08,0,0,0,6.69,1.56v1.22H5v-1.22a13.34,13.34,0,0,0,9-4.3q3.39-3.77,5.89-11.44L51.56,0ZM34.3,63.73H70L51.71,10.57h-.3Z" transform="translate(-5.02)"/></svg>