<svg id="Layer_1" data-name="Layer 1" xmlns="http://www.w3.org/2000/svg" viewBox="0 0 207.7 227.77"><defs><style>.cls-1{fill:#231f20;stroke:#231f20;stroke-miterlimit:10;}</style></defs><path class="cls-1" d="M119.54,0l67.08,191.94q5.31,14.91,10,21.6t9.05,8.44a38.94,38.94,0,0,0,11,2.36v2.43H143.57v-2.43q11.27,0,17.34-2.13T167,210.65q0-5.16-2.88-13.84a4.59,4.59,0,0,1-.61-1.83l-19.93-59.46H66l-17.78,55q-3.66,11.27-3.66,18.1,0,9.44,4.71,12.55t13.39,3.12v2.43H10v-2.43q11.25-1.07,18-8.59t11.79-22.9L103.11,0ZM68.6,127.45h71.32L103.42,21.14h-.61Z" transform="translate(-9.54 0.5)"/></svg>