<svg id="Layer_1" data-name="Layer 1" xmlns="http://www.w3.org/2000/svg" viewBox="0 0 21.02 29.35"><defs><style>.cls-1{fill:#231f20;stroke:#231f20;stroke-miterlimit:10;}</style></defs><path class="cls-1" d="M14.78,28.35H4.18V28h.38a2.54,2.54,0,0,0,1.86-.78,3.18,3.18,0,0,0,.78-2.34V3.52a3.52,3.52,0,0,0-.72-2.36,2.48,2.48,0,0,0-2-.83H4.18V0h9.25A10.36,10.36,0,0,1,16.8.53,7.77,7.77,0,0,1,19.41,2a6.8,6.8,0,0,1,1.65,2.12,5.83,5.83,0,0,1,.57,2.57A5.51,5.51,0,0,1,20,10.83a10,10,0,0,1-4.45,2.35v.08a20.87,20.87,0,0,1,2.45.4,9.2,9.2,0,0,1,2.11.75,7.81,7.81,0,0,1,1.77,1.25,7.54,7.54,0,0,1,1.27,1.52,6.89,6.89,0,0,1,.79,1.8,7.48,7.48,0,0,1,.27,2A6.35,6.35,0,0,1,23,24.79a8.28,8.28,0,0,1-2.58,2.42A11.81,11.81,0,0,1,14.78,28.35ZM10.12,13H12a8.11,8.11,0,0,0,3.24-.46,7.21,7.21,0,0,0,1.27-.85A5.34,5.34,0,0,0,17.75,10a5.87,5.87,0,0,0,.61-2.79A7.19,7.19,0,0,0,18,4.8a6.15,6.15,0,0,0-1.18-2A5.46,5.46,0,0,0,15,1.39a5.27,5.27,0,0,0-2.31-.5,9.06,9.06,0,0,0-2.53.42Zm2.91.86H10.12V24.09a6.37,6.37,0,0,0,.2,1.71A2.15,2.15,0,0,0,11.43,27a6.06,6.06,0,0,0,2.79.5c2.61,0,4.46-.87,5.57-2.6a7.39,7.39,0,0,0,1.13-4,7.21,7.21,0,0,0-.57-2.92,6.07,6.07,0,0,0-1.56-2.19,7.09,7.09,0,0,0-2.49-1.37A10.1,10.1,0,0,0,13,13.87Z" transform="translate(-3.68 0.5)"/></svg>