<svg id="Layer_1" data-name="Layer 1" xmlns="http://www.w3.org/2000/svg" viewBox="0 0 321.22 454.54"><defs><style>.cls-1{fill:#231f20;stroke:#231f20;stroke-miterlimit:10;}</style></defs><path class="cls-1" d="M236.47,453.54H66.82v-4.92H73a40.6,40.6,0,0,0,29.72-12.47q12.47-12.48,12.47-37.41V56.35q0-24.32-11.55-37.72T72.36,5.23H66.82V0h148.1q29.25,0,53.88,8.47t41.72,23.4a107.41,107.41,0,0,1,26.33,33.87,92.42,92.42,0,0,1,9.23,41.1q0,41-26.48,66.51t-71.12,37.56v1.24a331.82,331.82,0,0,1,39.1,6.46,146.68,146.68,0,0,1,33.87,12,125.21,125.21,0,0,1,28.33,20A119.61,119.61,0,0,1,370.1,275a108.57,108.57,0,0,1,12.63,28.79A118.92,118.92,0,0,1,387,335.62q0,35.4-18.32,61t-41.42,38.8Q294.34,453.55,236.47,453.54ZM162,208.14h29.56q36.31,0,51.72-7.39a112.93,112.93,0,0,0,20.48-13.54q10.62-8.62,20.32-27.1t9.7-44.65a115.06,115.06,0,0,0-6.47-38.64,99.4,99.4,0,0,0-18.78-32.48,88.53,88.53,0,0,0-29.25-22.17,85.32,85.32,0,0,0-37-8q-17.55,0-40.33,6.78ZM208.45,222H162V385.5q0,16.32,3.23,27.25t17.71,18.93q14.46,8,44.64,8,62.5,0,89-41.57,18.15-28.64,18.16-64.35,0-25.86-9.08-46.8a97.85,97.85,0,0,0-24.94-35q-15.87-14-39.87-22A164.92,164.92,0,0,0,208.45,222Z" transform="translate(-66.32 0.5)"/></svg>