<svg id="Layer_1" data-name="Layer 1" xmlns="http://www.w3.org/2000/svg" viewBox="0 0 41.03 57.69"><defs><style>.cls-1{fill:#231f20;stroke:#231f20;stroke-miterlimit:10;}</style></defs><path class="cls-1" d="M29.56,56.69H8.35v-.61h.77a5.08,5.08,0,0,0,3.72-1.56,6.4,6.4,0,0,0,1.55-4.68V7A7,7,0,0,0,13,2.33,4.88,4.88,0,0,0,9,.65H8.35V0H26.86A20.49,20.49,0,0,1,33.6,1.06,15.53,15.53,0,0,1,38.82,4a13.54,13.54,0,0,1,3.29,4.24,11.56,11.56,0,0,1,1.15,5.14A11,11,0,0,1,40,21.67a20,20,0,0,1-8.89,4.69v.16a41.56,41.56,0,0,1,4.89.81,18.49,18.49,0,0,1,4.23,1.5,15.31,15.31,0,0,1,3.54,2.5,14.87,14.87,0,0,1,2.54,3A13.23,13.23,0,0,1,47.84,38a14.75,14.75,0,0,1,.54,4,12.71,12.71,0,0,1-2.29,7.62,16.53,16.53,0,0,1-5.18,4.85Q36.8,56.7,29.56,56.69ZM20.24,26h3.7c3,0,5.18-.31,6.47-.93A14.24,14.24,0,0,0,33,23.4,10.9,10.9,0,0,0,35.51,20a12,12,0,0,0,1.21-5.58,14.4,14.4,0,0,0-.81-4.83,12.45,12.45,0,0,0-2.35-4.06,11,11,0,0,0-3.65-2.77,10.69,10.69,0,0,0-4.62-1,17.8,17.8,0,0,0-5.05.85Zm5.82,1.73H20.24V48.19a12.1,12.1,0,0,0,.41,3.4A4.26,4.26,0,0,0,22.86,54a11.94,11.94,0,0,0,5.58,1q7.81,0,11.13-5.19a14.75,14.75,0,0,0,2.27-8.05,14.54,14.54,0,0,0-1.14-5.85,12.23,12.23,0,0,0-3.12-4.37,14.35,14.35,0,0,0-5-2.75A20.48,20.48,0,0,0,26.06,27.75Z" transform="translate(-7.85 0.5)"/></svg>