<svg id="Layer_1" data-name="Layer 1" xmlns="http://www.w3.org/2000/svg" viewBox="0 0 81.06 114.39"><defs><style>.cls-1{fill:#231f20;stroke:#231f20;stroke-miterlimit:10;}</style></defs><path class="cls-1" d="M59.12,113.39H16.7v-1.24h1.54A10.13,10.13,0,0,0,25.67,109q3.12-3.12,3.12-9.36V14.09q0-6.09-2.89-9.43a9.76,9.76,0,0,0-7.81-3.35H16.7V0h37A41.27,41.27,0,0,1,67.2,2.12,30.84,30.84,0,0,1,77.63,8a26.86,26.86,0,0,1,6.58,8.46,23.16,23.16,0,0,1,2.31,10.28q0,10.24-6.62,16.63T62.12,52.73V53a82.45,82.45,0,0,1,9.78,1.61,36.19,36.19,0,0,1,8.46,3,30.93,30.93,0,0,1,7.08,5,29.79,29.79,0,0,1,5.09,6.08,27.34,27.34,0,0,1,3.15,7.2,29.56,29.56,0,0,1,1.08,8,25.5,25.5,0,0,1-4.58,15.25,33.22,33.22,0,0,1-10.35,9.69Q73.58,113.39,59.12,113.39ZM40.49,52h7.39c6,0,10.37-.62,12.93-1.85a28.23,28.23,0,0,0,5.12-3.39A21.58,21.58,0,0,0,71,40a23.71,23.71,0,0,0,2.43-11.16,28.73,28.73,0,0,0-1.62-9.66,24.85,24.85,0,0,0-4.7-8.13,22.18,22.18,0,0,0-7.31-5.54,21.39,21.39,0,0,0-9.24-2A36.27,36.27,0,0,0,40.49,5.23ZM52.11,55.5H40.49V96.37a24.45,24.45,0,0,0,.81,6.82q.81,2.73,4.42,4.73t11.17,2q15.61,0,22.24-10.39a29.39,29.39,0,0,0,4.54-16.09,29,29,0,0,0-2.27-11.7A24.48,24.48,0,0,0,75.17,63a28.68,28.68,0,0,0-10-5.5A41.29,41.29,0,0,0,52.11,55.5Z" transform="translate(-16.2 0.5)"/></svg>