<svg id="Layer_1" data-name="Layer 1" xmlns="http://www.w3.org/2000/svg" viewBox="0 0 161.11 227.77"><defs><style>.cls-1{fill:#231f20;stroke:#231f20;stroke-miterlimit:10;}</style></defs><path class="cls-1" d="M118.24,226.77H33.41v-2.46h3.08a20.26,20.26,0,0,0,14.85-6.24q6.24-6.24,6.24-18.7V28.17q0-12.17-5.77-18.86T36.18,2.62H33.41V0h74.05A82.45,82.45,0,0,1,134.4,4.23a62.12,62.12,0,0,1,20.86,11.7,53.72,53.72,0,0,1,13.16,16.94A46.22,46.22,0,0,1,173,53.42q0,20.47-13.24,33.26t-35.56,18.78v.61a165,165,0,0,1,19.55,3.24,72.85,72.85,0,0,1,16.94,6,62.78,62.78,0,0,1,14.16,10,59.54,59.54,0,0,1,10.16,12.16,54.17,54.17,0,0,1,6.31,14.39,59.33,59.33,0,0,1,2.16,15.94q0,17.7-9.17,30.48t-20.7,19.4Q147.18,226.77,118.24,226.77ZM81,104.07H95.76q18.17,0,25.86-3.69a57,57,0,0,0,10.24-6.78q5.31-4.3,10.16-13.54t4.85-22.33a57.78,57.78,0,0,0-3.23-19.32,49.93,49.93,0,0,0-9.39-16.24,44.4,44.4,0,0,0-14.63-11.09,42.8,42.8,0,0,0-18.47-4A71.81,71.81,0,0,0,81,10.47ZM104.23,111H81v81.75a48.27,48.27,0,0,0,1.62,13.62q1.61,5.48,8.85,9.47t22.32,4q31.24,0,44.49-20.78a61.89,61.89,0,0,0,4.54-55.58A48.91,48.91,0,0,0,150.34,126a57,57,0,0,0-19.94-11A82.57,82.57,0,0,0,104.23,111Z" transform="translate(-32.91 0.5)"/></svg>