<svg id="Layer_1" data-name="Layer 1" xmlns="http://www.w3.org/2000/svg" viewBox="0 0 24.87 29.35"><defs><style>.cls-1{fill:#231f20;stroke:#231f20;stroke-miterlimit:10;}</style></defs><path class="cls-1" d="M25.84,6.8h-.31a5.8,5.8,0,0,0-1.85-3.34,9.39,9.39,0,0,0-3.45-2A11.92,11.92,0,0,0,16.58.84a10,10,0,0,0-4.35,1A10.39,10.39,0,0,0,8.72,4.57,12.78,12.78,0,0,0,6.43,8.83a17.09,17.09,0,0,0-.83,5.41,16.68,16.68,0,0,0,.8,5.24,12.26,12.26,0,0,0,2.31,4.19,10.14,10.14,0,0,0,3.53,2.69,10.6,10.6,0,0,0,4.45.91,14.07,14.07,0,0,0,4.48-.83,11.57,11.57,0,0,0,4.42-2.76v1a21.24,21.24,0,0,1-4.45,2.75,12.65,12.65,0,0,1-5,.88,14.14,14.14,0,0,1-5.78-1.16,13,13,0,0,1-4.43-3.13,13.66,13.66,0,0,1-2.73-4.43,14.21,14.21,0,0,1-.93-5.06A14.35,14.35,0,0,1,4.18,7.28,14.5,14.5,0,0,1,9.41,2a13.76,13.76,0,0,1,7.17-2,20.22,20.22,0,0,1,5.09.71l1.89.53a5.23,5.23,0,0,0,.93.11,1.5,1.5,0,0,0,1-.21A1.38,1.38,0,0,0,25.8.38h.3Z" transform="translate(-1.75 0.5)"/></svg>