<svg id="Layer_1" data-name="Layer 1" xmlns="http://www.w3.org/2000/svg" viewBox="0 0 382.52 454.54"><defs><style>.cls-1{fill:#231f20;stroke:#231f20;stroke-miterlimit:10;}</style></defs><path class="cls-1" d="M413.44,108.79h-5q-5.53-31.5-29.61-53.37A149.22,149.22,0,0,0,323.6,23.48q-31.22-10.07-58.33-10.06A158.77,158.77,0,0,0,195.71,29a165.36,165.36,0,0,0-56.15,44q-23.62,28.44-36.75,68.25T89.69,227.79q0,45.22,12.69,83.86t37,67.08q24.35,28.44,56.44,43T267,436.33q32.66,0,71.75-13.27t70.58-44.18V395.5q-38.78,30-71,44t-80.35,14q-50.76,0-92.6-18.52T94.65,385A218,218,0,0,1,50.9,314.13,227.58,227.58,0,0,1,36,233,234.52,234.52,0,0,1,150.65,31.35,220.55,220.55,0,0,1,265.27,0q38.22,0,81.38,11.38L377,19.83a77.54,77.54,0,0,0,14.87,1.75q11.38,0,15.17-3.35c2.52-2.23,4.48-6.27,5.83-12.1h4.67Z" transform="translate(-35.52 0.5)"/></svg>