<svg id="Layer_1" data-name="Layer 1" xmlns="http://www.w3.org/2000/svg" viewBox="0 0 48.7 57.69"><defs><style>.cls-1{fill:#231f20;stroke:#231f20;stroke-miterlimit:10;}</style></defs><path class="cls-1" d="M51.68,13.6h-.62a11.42,11.42,0,0,0-3.7-6.67,18.58,18.58,0,0,0-6.91-4,24.06,24.06,0,0,0-7.29-1.25,19.81,19.81,0,0,0-8.69,2,20.66,20.66,0,0,0-7,5.5,26,26,0,0,0-4.6,8.53,34.5,34.5,0,0,0-1.64,10.81A33.38,33.38,0,0,0,12.8,39a24.47,24.47,0,0,0,4.63,8.38,20.37,20.37,0,0,0,7.05,5.38,21.36,21.36,0,0,0,8.9,1.82,27.91,27.91,0,0,0,9-1.66,23,23,0,0,0,8.83-5.52v2.08a42.62,42.62,0,0,1-8.87,5.5,25.25,25.25,0,0,1-10,1.75,28.37,28.37,0,0,1-11.58-2.31,26.47,26.47,0,0,1-8.84-6.25,27.45,27.45,0,0,1-5.47-8.86,29,29,0,0,1,2-24.7A28.89,28.89,0,0,1,18.83,3.92,27.6,27.6,0,0,1,33.16,0,39.92,39.92,0,0,1,43.33,1.42l3.79,1.06A9.44,9.44,0,0,0,49,2.7a3,3,0,0,0,1.9-.42A3,3,0,0,0,51.61.77h.58Z" transform="translate(-4 0.5)"/></svg>