<svg id="Layer_1" data-name="Layer 1" xmlns="http://www.w3.org/2000/svg" viewBox="0 0 96.4 114.39"><defs><style>.cls-1{fill:#231f20;stroke:#231f20;stroke-miterlimit:10;}</style></defs><path class="cls-1" d="M103.36,27.2h-1.24a23,23,0,0,0-7.4-13.35,37.46,37.46,0,0,0-13.82-8A47.58,47.58,0,0,0,66.32,3.35,39.54,39.54,0,0,0,48.93,7.26a41.34,41.34,0,0,0-14,11A51.67,51.67,0,0,0,25.7,35.33,68.86,68.86,0,0,0,22.42,57a67,67,0,0,0,3.17,21,49.16,49.16,0,0,0,9.26,16.77A40.65,40.65,0,0,0,49,105.44a42.53,42.53,0,0,0,17.8,3.64,56.17,56.17,0,0,0,17.93-3.31,46.36,46.36,0,0,0,17.65-11v4.16a86,86,0,0,1-17.76,11q-8.06,3.49-20.08,3.5a56.75,56.75,0,0,1-23.16-4.63A52.48,52.48,0,0,1,23.66,96.25,54.63,54.63,0,0,1,12.72,78.53,56.87,56.87,0,0,1,9,58.26,58.58,58.58,0,0,1,37.66,7.84,55.09,55.09,0,0,1,66.32,0,80.16,80.16,0,0,1,86.66,2.84L94.25,5A19.48,19.48,0,0,0,98,5.4c1.9,0,3.16-.28,3.8-.84a5.78,5.78,0,0,0,1.45-3h1.17Z" transform="translate(-8.51 0.5)"/></svg>