<svg id="Layer_1" data-name="Layer 1" xmlns="http://www.w3.org/2000/svg" viewBox="0 0 191.77 227.77"><defs><style>.cls-1{fill:#231f20;stroke:#231f20;stroke-miterlimit:10;}</style></defs><path class="cls-1" d="M206.72,54.4h-2.48a45.9,45.9,0,0,0-14.8-26.69,74.59,74.59,0,0,0-27.64-16,95.48,95.48,0,0,0-29.17-5,79.33,79.33,0,0,0-34.77,7.8,82.68,82.68,0,0,0-28.08,22A103.46,103.46,0,0,0,51.41,70.66a137.19,137.19,0,0,0-6.56,43.24,133.6,133.6,0,0,0,6.34,41.92,97.77,97.77,0,0,0,18.52,33.55,81.11,81.11,0,0,0,28.22,21.51,85,85,0,0,0,35.58,7.29q16.32,0,35.87-6.64a92.33,92.33,0,0,0,35.3-22.09v8.31q-19.4,15-35.51,22t-40.18,7q-25.37,0-46.3-9.26a104.84,104.84,0,0,1-35.37-25,109.12,109.12,0,0,1-21.87-35.44A113.72,113.72,0,0,1,18,116.52,117.24,117.24,0,0,1,75.33,15.68,110.2,110.2,0,0,1,132.63,0a160.18,160.18,0,0,1,40.7,5.69l15.16,4.23a39.12,39.12,0,0,0,7.44.87q5.69,0,7.58-1.68c1.26-1.11,2.24-3.13,2.92-6h2.33Z" transform="translate(-17.51 0.5)"/></svg>