<svg id="Layer_1" data-name="Layer 1" xmlns="http://www.w3.org/2000/svg" viewBox="0 0 28.31 29.35"><defs><style>.cls-1{fill:#231f20;stroke:#231f20;stroke-miterlimit:10;}</style></defs><path class="cls-1" d="M.52.33V0H11.43a21.43,21.43,0,0,1,4.23.39,18.83,18.83,0,0,1,3.46,1,14.75,14.75,0,0,1,2.64,1.44,12.51,12.51,0,0,1,1.89,1.58,14.2,14.2,0,0,1,2.29,3,14,14,0,0,1,1.42,3.47,15.27,15.27,0,0,1,.47,3.77,14.37,14.37,0,0,1-.47,3.7A13,13,0,0,1,26,21.64,13.35,13.35,0,0,1,24,24.34a15.22,15.22,0,0,1-2.8,2.2A13.41,13.41,0,0,1,18,27.85a18.45,18.45,0,0,1-4.79.5H.52V28H.91a2.23,2.23,0,0,0,2-1,3.85,3.85,0,0,0,.65-2.12V3.52a4.23,4.23,0,0,0-.35-1.81,2.38,2.38,0,0,0-1-1.06A2.77,2.77,0,0,0,.91.33Zm5.95,1V23.8A4.35,4.35,0,0,0,7,26.24a2.47,2.47,0,0,0,1.64,1,17.77,17.77,0,0,0,3.27.23,18.87,18.87,0,0,0,5.2-.61,9.2,9.2,0,0,0,4.1-2.7,11.9,11.9,0,0,0,2.34-3.81,14.92,14.92,0,0,0,.89-5.45,18.12,18.12,0,0,0-.71-5,13.33,13.33,0,0,0-2.18-4.4,11.23,11.23,0,0,0-4.2-3.4A14.24,14.24,0,0,0,11.16.89,29.79,29.79,0,0,0,6.47,1.35Z" transform="translate(-0.02 0.5)"/></svg>