<svg id="Layer_1" data-name="Layer 1" xmlns="http://www.w3.org/2000/svg" viewBox="0 0 437.92 454.54"><defs><style>.cls-1{fill:#231f20;stroke:#231f20;stroke-miterlimit:10;}</style></defs><path class="cls-1" d="M8.31,5.23V0H182.9a339.06,339.06,0,0,1,67.58,6.31A287.47,287.47,0,0,1,305.9,23.09,236.38,236.38,0,0,1,348.24,46a198.94,198.94,0,0,1,30.17,25.4,227.89,227.89,0,0,1,36.65,47.88,224.32,224.32,0,0,1,22.63,55.58,241.18,241.18,0,0,1,7.54,60.35,230.76,230.76,0,0,1-7.39,59.12,208.7,208.7,0,0,1-21.25,51.88A213,213,0,0,1,383.5,389.5a239.31,239.31,0,0,1-44.81,35.1q-21.85,12.93-50.18,20.94t-76.67,8H8.31v-4.92h6.16q21.26,0,31.72-16t10.46-33.87V56.35Q56.65,39.1,51,27.4T35.72,10.47A43.48,43.48,0,0,0,14.47,5.23Zm95.15,16.32V380.88q0,26.49,8.46,38.95T138.25,436q17.85,3.7,52.34,3.7,49.26,0,83.14-9.7t65.58-43.26q23.4-24.94,37.57-61T391,238.63a287.7,287.7,0,0,0-11.39-79.91q-11.4-39.56-34.8-70.35-26.18-34.78-67.27-54.5t-99-19.71Q148.71,14.16,103.46,21.55Z" transform="translate(-7.81 0.5)"/></svg>