<svg id="Layer_1" data-name="Layer 1" xmlns="http://www.w3.org/2000/svg" viewBox="0 0 55.61 57.69"><defs><style>.cls-1{fill:#231f20;stroke:#231f20;stroke-miterlimit:10;}</style></defs><path class="cls-1" d="M1,.65V0H22.86a42,42,0,0,1,8.45.79,35.58,35.58,0,0,1,6.93,2.1,29.32,29.32,0,0,1,5.29,2.86A24.78,24.78,0,0,1,47.3,8.93a28.53,28.53,0,0,1,4.58,6,28,28,0,0,1,2.84,7,30.48,30.48,0,0,1,.93,7.54,29.05,29.05,0,0,1-.92,7.39,26.35,26.35,0,0,1-6.79,11.9,30.39,30.39,0,0,1-5.6,4.39,26.22,26.22,0,0,1-6.28,2.61,36.42,36.42,0,0,1-9.58,1H1v-.61h.77a4.41,4.41,0,0,0,4-2,7.58,7.58,0,0,0,1.31-4.24V7a8.12,8.12,0,0,0-.71-3.61,4.56,4.56,0,0,0-1.9-2.12A5.41,5.41,0,0,0,1.81.65Zm11.89,2V47.61A8.86,8.86,0,0,0,14,52.48a5,5,0,0,0,3.29,2,34.56,34.56,0,0,0,6.55.46,38.19,38.19,0,0,0,10.39-1.21,18.49,18.49,0,0,0,8.19-5.41,23.66,23.66,0,0,0,4.7-7.62,29.79,29.79,0,0,0,1.77-10.89,36,36,0,0,0-1.43-10,26.39,26.39,0,0,0-4.34-8.79A22.71,22.71,0,0,0,34.7,4.23,28.47,28.47,0,0,0,22.32,1.77,61.15,61.15,0,0,0,12.93,2.69Z" transform="translate(-0.54 0.5)"/></svg>