<svg id="Layer_1" data-name="Layer 1" xmlns="http://www.w3.org/2000/svg" viewBox="0 0 110.23 114.39"><defs><style>.cls-1{fill:#231f20;stroke:#231f20;stroke-miterlimit:10;}</style></defs><path class="cls-1" d="M2.08,1.35V0H45.72a84.06,84.06,0,0,1,16.9,1.58A71.87,71.87,0,0,1,76.48,5.81a59.29,59.29,0,0,1,10.58,5.74A48.5,48.5,0,0,1,94.6,17.9a56.27,56.27,0,0,1,9.16,12,55.73,55.73,0,0,1,5.66,13.89,60.12,60.12,0,0,1,1.89,15.09,57.83,57.83,0,0,1-1.85,14.78,52.15,52.15,0,0,1-5.31,13,53,53,0,0,1-8.28,10.81,59.3,59.3,0,0,1-11.2,8.78,52.63,52.63,0,0,1-12.54,5.23q-7.08,2-19.17,2H2.08v-1.23H3.62a8.83,8.83,0,0,0,7.93-4,15.25,15.25,0,0,0,2.61-8.47V14.13a16.45,16.45,0,0,0-1.42-7.24A9.22,9.22,0,0,0,8.93,2.66,10.77,10.77,0,0,0,3.62,1.35ZM25.86,5.43V95.26q0,6.61,2.12,9.74a10,10,0,0,0,6.58,4,69.94,69.94,0,0,0,13.09.92,76.73,76.73,0,0,0,20.78-2.42q8.47-2.43,16.4-10.82a47.3,47.3,0,0,0,9.39-15.24q3.54-9,3.54-21.79a71.77,71.77,0,0,0-2.85-20,53.05,53.05,0,0,0-8.7-17.59A44.94,44.94,0,0,0,69.39,8.51Q59.11,3.57,44.65,3.58A121,121,0,0,0,25.86,5.43Z" transform="translate(-1.58 0.46)"/></svg>