<svg id="Layer_1" data-name="Layer 1" xmlns="http://www.w3.org/2000/svg" viewBox="0 0 219.46 227.77"><defs><style>.cls-1{fill:#231f20;stroke:#231f20;stroke-miterlimit:10;}</style></defs><path class="cls-1" d="M4.16,2.62V0H91.45a168.74,168.74,0,0,1,33.79,3.16A142.93,142.93,0,0,1,153,11.55,117.7,117.7,0,0,1,174.12,23a99.19,99.19,0,0,1,15.09,12.7,113.54,113.54,0,0,1,18.32,23.94,112,112,0,0,1,11.31,27.78,120.23,120.23,0,0,1,3.77,30.18,115.6,115.6,0,0,1-3.69,29.56,104.15,104.15,0,0,1-10.62,25.94,106.33,106.33,0,0,1-16.55,21.63,119.2,119.2,0,0,1-22.4,17.55,105.77,105.77,0,0,1-25.1,10.47q-14.16,4-38.33,4H4.16v-2.46H7.24q10.62,0,15.85-8a30.42,30.42,0,0,0,5.24-16.93V28.17A32.91,32.91,0,0,0,25.48,13.7a18.51,18.51,0,0,0-7.62-8.47A21.76,21.76,0,0,0,7.24,2.62Zm47.57,8.16V190.44q0,13.25,4.23,19.47T69.13,218q8.93,1.84,26.17,1.84,24.63,0,41.57-4.84t32.78-21.64a94.41,94.41,0,0,0,18.79-30.48q7.06-18,7.08-43.57a144,144,0,0,0-5.69-39.95,106.32,106.32,0,0,0-17.41-35.18,90,90,0,0,0-33.63-27.25q-20.55-9.84-49.5-9.85Q74.37,7.08,51.73,10.78Z" transform="translate(-3.66 0.5)"/></svg>