<svg id="Layer_1" data-name="Layer 1" xmlns="http://www.w3.org/2000/svg" viewBox="0 0 19 29.35"><defs><style>.cls-1{fill:#231f20;stroke:#231f20;stroke-miterlimit:10;}</style></defs><path class="cls-1" d="M5.24.33V0H22.13V4.46h-.27q0-3.57-4.77-3.57H11.18V13.76h5.2a7.25,7.25,0,0,0,2.75-.5A2.46,2.46,0,0,0,20.51,11h.29V17.4h-.29a3.46,3.46,0,0,0-.65-1.69,2.6,2.6,0,0,0-.95-.78,2.44,2.44,0,0,0-.84-.19,8.41,8.41,0,0,0-1.44-.11H11.18V24.69a4.26,4.26,0,0,0,.43,2c.29.55,1,.83,2,.83h4.22a6.19,6.19,0,0,0,2.5-.44,3.9,3.9,0,0,0,1.55-1.23,7.1,7.1,0,0,0,.95-1.91h.27l-1,4.45H5.24V28h.38a2.78,2.78,0,0,0,1.77-.73,3,3,0,0,0,.87-2.39V3.56a4.29,4.29,0,0,0-.59-2.27,2.2,2.2,0,0,0-2-1Z" transform="translate(-4.74 0.5)"/></svg>