<svg id="Layer_1" data-name="Layer 1" xmlns="http://www.w3.org/2000/svg" viewBox="0 0 287.17 454.54"><defs><style>.cls-1{fill:#231f20;stroke:#231f20;stroke-miterlimit:10;}</style></defs><path class="cls-1" d="M83.75,5.23V0H354.09V71.43h-4.31q0-57.27-76.36-57.27H178.89v206H262q24.63,0,44-8t22.17-36.64h4.61V278.35h-4.61q-2.78-17.55-10.47-27t-15.24-12.47a36.43,36.43,0,0,0-13.4-3.08A140.52,140.52,0,0,0,266,234H178.89V395q0,18.18,6.93,31.41T218,439.69h67.43q24.32,0,40-7.08t24.78-19.71a117.62,117.62,0,0,0,15.24-30.48h4.31l-15.7,71.12H83.75v-4.92h6.16q14.46,0,28.33-11.7t13.85-38.18V57q0-20.93-9.39-36.33T89.91,5.23Z" transform="translate(-83.25 0.5)"/></svg>