<svg id="Layer_1" data-name="Layer 1" xmlns="http://www.w3.org/2000/svg" viewBox="0 0 36.88 57.69"><defs><style>.cls-1{fill:#231f20;stroke:#231f20;stroke-miterlimit:10;}</style></defs><path class="cls-1" d="M10.47.65V0H44.26V8.93h-.54q0-7.15-9.54-7.16H22.36V27.52H32.75a14.28,14.28,0,0,0,5.51-1q2.43-1,2.77-4.58h.58V34.79H41a6.94,6.94,0,0,0-1.31-3.36,5,5,0,0,0-1.91-1.56,4.44,4.44,0,0,0-1.67-.39,17.87,17.87,0,0,0-2.88-.23H22.36V49.38a8.5,8.5,0,0,0,.86,3.93c.58,1.1,1.93,1.65,4,1.65h8.43a12.21,12.21,0,0,0,5-.88,7.58,7.58,0,0,0,3.1-2.47,15.07,15.07,0,0,0,1.91-3.81h.54l-2,8.89H10.47v-.61h.77a5.47,5.47,0,0,0,3.54-1.47q1.72-1.45,1.73-4.77V7.12a8.57,8.57,0,0,0-1.17-4.54A4.43,4.43,0,0,0,11.24.65Z" transform="translate(-9.97 0.5)"/></svg>