<svg id="Layer_1" data-name="Layer 1" xmlns="http://www.w3.org/2000/svg" viewBox="0 0 72.63 114.39"><defs><style>.cls-1{fill:#231f20;stroke:#231f20;stroke-miterlimit:10;}</style></defs><path class="cls-1" d="M20.94,1.31V0H88.52V17.86H87.44q0-14.32-19.09-14.32H44.72V55H65.51a28.68,28.68,0,0,0,11-2c3.24-1.34,5.08-4.39,5.55-9.16h1.15V69.59H82.06a14.07,14.07,0,0,0-2.62-6.74,10.25,10.25,0,0,0-3.81-3.12A9.09,9.09,0,0,0,72.28,59a36,36,0,0,0-5.77-.46H44.72V98.76a16.63,16.63,0,0,0,1.74,7.85q1.73,3.31,8,3.31H71.36a24.41,24.41,0,0,0,10-1.77,15,15,0,0,0,6.2-4.93,29.48,29.48,0,0,0,3.81-7.62h1.08l-3.93,17.79H20.94v-1.24h1.54a10.93,10.93,0,0,0,7.08-2.92Q33,106.31,33,99.68V14.24a17,17,0,0,0-2.35-9.08Q28.33,1.3,22.48,1.31Z" transform="translate(-20.44 0.5)"/></svg>