<svg id="Layer_1" data-name="Layer 1" xmlns="http://www.w3.org/2000/svg" viewBox="0 0 144.14 227.77"><defs><style>.cls-1{fill:#231f20;stroke:#231f20;stroke-miterlimit:10;}</style></defs><path class="cls-1" d="M41.88,2.62V0H177.05V35.72h-2.16q0-28.63-38.18-28.64H89.45v103H131a57.21,57.21,0,0,0,22-4q9.71-4,11.09-18.32h2.3v51.42h-2.3q-1.4-8.78-5.24-13.47t-7.62-6.23a18,18,0,0,0-6.7-1.54A69.69,69.69,0,0,0,133,117H89.45v80.52a33.4,33.4,0,0,0,3.46,15.7q3.47,6.63,16.09,6.62h33.71q12.16,0,20-3.54a30.18,30.18,0,0,0,12.4-9.85,59.28,59.28,0,0,0,7.61-15.24h2.16l-7.85,35.56H41.88v-2.46H45q7.23,0,14.16-5.85t6.93-19.09V28.48a34.24,34.24,0,0,0-4.7-18.17Q56.66,2.63,45,2.62Z" transform="translate(-41.38 0.5)"/></svg>