<svg id="Layer_1" data-name="Layer 1" xmlns="http://www.w3.org/2000/svg" viewBox="0 0 273.19 454.54"><defs><style>.cls-1{fill:#231f20;stroke:#231f20;stroke-miterlimit:10;}</style></defs><path class="cls-1" d="M90.68,5.23V0H362.87V69h-4.93a68.31,68.31,0,0,0-15.55-38q-13.71-16.77-47-16.78h-109V219.54H288q28.93,0,39.42-11.86T341,174.89h4.93V277.73H341q-1.85-19.39-12.77-31.87T288,233.39H186.44V398.74q0,22.47,12.93,36.18t31.1,13.7h6.46v4.92H90.68v-4.92h6.16a39,39,0,0,0,30.63-13.86q12.17-13.86,12.16-36v-343q0-29.25-13.24-39.87A46.06,46.06,0,0,0,96.84,5.23Z" transform="translate(-90.18 0.5)"/></svg>