<svg id="Layer_1" data-name="Layer 1" xmlns="http://www.w3.org/2000/svg" viewBox="0 0 35.02 57.69"><defs><style>.cls-1{fill:#231f20;stroke:#231f20;stroke-miterlimit:10;}</style></defs><path class="cls-1" d="M11.33.65V0h34V8.62h-.62A8.5,8.5,0,0,0,42.8,3.87q-1.71-2.1-5.87-2.1H23.3V27.44H36q3.62,0,4.92-1.48a7.8,7.8,0,0,0,1.7-4.1h.61V34.72h-.61a6.91,6.91,0,0,0-1.6-4c-.91-1-2.59-1.56-5-1.56H23.3V49.84a6.29,6.29,0,0,0,1.62,4.52,5.13,5.13,0,0,0,3.89,1.72h.81v.61H11.33v-.61h.77a4.89,4.89,0,0,0,3.83-1.73,6.57,6.57,0,0,0,1.52-4.51V7q0-3.66-1.65-5A5.8,5.8,0,0,0,12.1.65Z" transform="translate(-10.83 0.5)"/></svg>