<svg id="Layer_1" data-name="Layer 1" xmlns="http://www.w3.org/2000/svg" viewBox="0 0 69.05 114.39"><defs><style>.cls-1{fill:#231f20;stroke:#231f20;stroke-miterlimit:10;}</style></defs><path class="cls-1" d="M22.67,1.31V0H90.72V17.24H89.48a17,17,0,0,0-3.88-9.5q-3.43-4.2-11.74-4.2H46.61V54.88H72q7.23,0,9.85-3a15.47,15.47,0,0,0,3.39-8.2h1.23V69.43H85.25a13.69,13.69,0,0,0-3.19-8c-1.83-2.08-5.17-3.12-10-3.12H46.61V99.68a12.66,12.66,0,0,0,3.23,9,10.33,10.33,0,0,0,7.78,3.42h1.61v1.24H22.67v-1.24h1.54a9.76,9.76,0,0,0,7.66-3.46,13.14,13.14,0,0,0,3-9V13.93q0-7.3-3.31-10a11.52,11.52,0,0,0-7.39-2.65Z" transform="translate(-22.17 0.5)"/></svg>