<svg id="Layer_1" data-name="Layer 1" xmlns="http://www.w3.org/2000/svg" viewBox="0 0 137.09 227.77"><defs><style>.cls-1{fill:#231f20;stroke:#231f20;stroke-miterlimit:10;}</style></defs><path class="cls-1" d="M45.34,2.62V0H181.43V34.49H179a34.28,34.28,0,0,0-7.77-19q-6.85-8.38-23.49-8.39H93.21V109.77H144q14.46,0,19.7-5.93t6.78-16.4H173v51.42H170.5q-.93-9.69-6.38-15.93T144,116.7H93.21v82.67q0,11.24,6.47,18.09a20.61,20.61,0,0,0,15.55,6.85h3.23v2.46H45.34v-2.46h3.08a19.54,19.54,0,0,0,15.32-6.93q6.08-6.93,6.07-18V27.87q0-14.62-6.61-19.94A23.07,23.07,0,0,0,48.42,2.62Z" transform="translate(-44.84 0.5)"/></svg>