<svg id="Layer_1" data-name="Layer 1" xmlns="http://www.w3.org/2000/svg" viewBox="0 0 27.87 29.35"><defs><style>.cls-1{fill:#231f20;stroke:#231f20;stroke-miterlimit:10;}</style></defs><path class="cls-1" d="M24.66,6.36h-.3a6.06,6.06,0,0,0-3.09-4.07A11.3,11.3,0,0,0,15.52.84a13.67,13.67,0,0,0-3.6.52A10.89,10.89,0,0,0,8.18,3.24a10.2,10.2,0,0,0-3,4A15.58,15.58,0,0,0,4,13.74q0,6.28,2.92,10t9.4,3.76A14.87,14.87,0,0,0,20,27.18a2.42,2.42,0,0,0,1.53-.95,3.25,3.25,0,0,0,.34-1.62V19.69a2.78,2.78,0,0,0-.76-2.32,4.76,4.76,0,0,0-2.26-.74v-.31h8.73v.31a4.6,4.6,0,0,0-1.86.51,2,2,0,0,0-.88,1,5.23,5.23,0,0,0-.21,1.64v7.47a31.77,31.77,0,0,1-8.28,1.08A26.45,26.45,0,0,1,12,28a14.52,14.52,0,0,1-4.48-1.62,12.35,12.35,0,0,1-4.12-3.72A13.91,13.91,0,0,1,.74,14.27,14.16,14.16,0,0,1,1.75,9,14.32,14.32,0,0,1,4.67,4.38a13.64,13.64,0,0,1,4.65-3.2A15.34,15.34,0,0,1,15.43,0,19.35,19.35,0,0,1,18,.17c.82.12,2.06.35,3.7.71a7.41,7.41,0,0,0,1.38.21A1.36,1.36,0,0,0,24.36.2h.3Z" transform="translate(-0.24 0.5)"/></svg>