<svg id="Layer_1" data-name="Layer 1" xmlns="http://www.w3.org/2000/svg" viewBox="0 0 430.92 454.54"><defs><style>.cls-1{fill:#231f20;stroke:#231f20;stroke-miterlimit:10;}</style></defs><path class="cls-1" d="M394.48,101.79h-4.67q-9.33-42-49.58-65.19T248.36,13.42q-26.85,0-57.61,8.31T130.81,51.92Q101.65,73.79,82.4,115.35T63.15,219.92q0,100.34,46.81,160.41t150.35,60.09q40.83,0,60.09-5.54T345,419.71q5.4-9.63,5.4-26V315q0-28-12.11-37T302,266v-5H441.73v5q-19.25,2-29.75,8.31T398,290.5q-3.5,9.92-3.5,26.25V436.33a509.11,509.11,0,0,1-132.42,17.21,416.25,416.25,0,0,1-69.71-5.83q-34.41-5.83-71.75-26t-65.91-59.5Q11.81,303,11.81,228.38A232,232,0,0,1,74.67,70.15q30.47-32.52,74.52-51.34T246.9,0a293.94,293.94,0,0,1,40.54,2.77Q307.27,5.55,346.65,14q15.45,3.49,22.16,3.5,14.29,0,21-14.29h4.67Z" transform="translate(-11.31 0.5)"/></svg>