<svg id="Layer_1" data-name="Layer 1" xmlns="http://www.w3.org/2000/svg" viewBox="0 0 54.74 57.69"><defs><style>.cls-1{fill:#231f20;stroke:#231f20;stroke-miterlimit:10;}</style></defs><path class="cls-1" d="M49.31,12.72h-.58a12.21,12.21,0,0,0-6.2-8.14A22.53,22.53,0,0,0,31,1.68a27.45,27.45,0,0,0-7.2,1,22.12,22.12,0,0,0-7.49,3.77,20.28,20.28,0,0,0-6.05,7.93A31.17,31.17,0,0,0,7.89,27.49q0,12.54,5.85,20.05t18.8,7.51a29.64,29.64,0,0,0,7.51-.69,4.89,4.89,0,0,0,3.08-1.9,6.62,6.62,0,0,0,.67-3.24V39.38c0-2.34-.5-3.88-1.51-4.64a9.52,9.52,0,0,0-4.54-1.49v-.62H55.22v.62a9.24,9.24,0,0,0-3.72,1,3.82,3.82,0,0,0-1.75,2,10.15,10.15,0,0,0-.44,3.28V54.54a63.35,63.35,0,0,1-16.55,2.15A51.75,51.75,0,0,1,24,56a29.12,29.12,0,0,1-9-3.24,24.69,24.69,0,0,1-8.24-7.44A27.76,27.76,0,0,1,1.48,28.55,29,29,0,0,1,9.33,8.77a27.31,27.31,0,0,1,9.32-6.42A30.73,30.73,0,0,1,30.86,0a36.68,36.68,0,0,1,5.07.35q2.48.35,7.4,1.4a14.65,14.65,0,0,0,2.77.44A2.77,2.77,0,0,0,48.73.4h.58Z" transform="translate(-0.98 0.5)"/></svg>