<svg id="Layer_1" data-name="Layer 1" xmlns="http://www.w3.org/2000/svg" viewBox="0 0 108.48 114.39"><defs><style>.cls-1{fill:#231f20;stroke:#231f20;stroke-miterlimit:10;}</style></defs><path class="cls-1" d="M98.62,25.45H97.45Q95.13,15,85.06,9.15a45.24,45.24,0,0,0-23-5.8,55.63,55.63,0,0,0-14.4,2.08A44.23,44.23,0,0,0,32.7,13q-7.29,5.47-12.1,15.86T15.79,55q0,25.08,11.7,40.1t37.59,15q10.2,0,15-1.38c3.21-.92,5.26-2.19,6.16-3.79a13.3,13.3,0,0,0,1.35-6.49V78.75q0-7-3-9.26t-9.07-3V65.26h34.92V66.5A18.37,18.37,0,0,0,103,68.58a7.63,7.63,0,0,0-3.5,4,20,20,0,0,0-.88,6.56v29.89a127.14,127.14,0,0,1-33.1,4.31,104.25,104.25,0,0,1-17.43-1.46,58.72,58.72,0,0,1-17.94-6.49A49.56,49.56,0,0,1,13.67,90.56,55.69,55.69,0,0,1,3,57.09,58,58,0,0,1,18.67,17.54,54.58,54.58,0,0,1,37.3,4.7,61.64,61.64,0,0,1,61.72,0,73.48,73.48,0,0,1,71.86.69q5,.69,14.8,2.81a29.42,29.42,0,0,0,5.54.88A5.51,5.51,0,0,0,97.45.8h1.17Z" transform="translate(-2.45 0.5)"/></svg>