<svg id="Layer_1" data-name="Layer 1" xmlns="http://www.w3.org/2000/svg" viewBox="0 0 215.96 227.77"><defs><style>.cls-1{fill:#231f20;stroke:#231f20;stroke-miterlimit:10;}</style></defs><path class="cls-1" d="M197.24,50.9h-2.33q-4.68-21-24.8-32.6T124.18,6.71a110.68,110.68,0,0,0-28.8,4.15,88.6,88.6,0,0,0-30,15.1Q50.82,36.89,41.2,57.68T31.57,110q0,50.16,23.41,80.21t75.18,30q20.42,0,30-2.77t12.33-7.59q2.7-4.8,2.69-13V157.5q0-14-6.05-18.52T151,133v-2.48h69.84V133q-9.62,1-14.87,4.16a15.39,15.39,0,0,0-7,8.09,40.32,40.32,0,0,0-1.75,13.13v59.79a254.76,254.76,0,0,1-66.21,8.6,207.59,207.59,0,0,1-34.85-2.92q-17.22-2.91-35.88-13T27.35,181.13Q5.9,151.52,5.91,114.19A116,116,0,0,1,37.33,35.07,108.92,108.92,0,0,1,74.6,9.41Q96.62,0,123.45,0a145.37,145.37,0,0,1,20.27,1.39q9.92,1.38,29.6,5.61a57.6,57.6,0,0,0,11.09,1.75q7.14,0,10.5-7.15h2.33Z" transform="translate(-5.41 0.5)"/></svg>