<svg id="Layer_1" data-name="Layer 1" xmlns="http://www.w3.org/2000/svg" viewBox="0 0 29.13 29.35"><defs><style>.cls-1{fill:#231f20;stroke:#231f20;stroke-miterlimit:10;}</style></defs><path class="cls-1" d="M22.29,13V3.48a3.4,3.4,0,0,0-.75-2.27A2.87,2.87,0,0,0,19.22.33V0h9V.33a2.86,2.86,0,0,0-2.31.87,3.45,3.45,0,0,0-.73,2.28V24.92q0,3.12,3,3.12v.31h-9V28a3.15,3.15,0,0,0,2.26-.78,3.05,3.05,0,0,0,.81-2.3V13.84H6.05V24.92a3.05,3.05,0,0,0,.84,2.3A3,3,0,0,0,9.13,28v.31h-9V28a2.94,2.94,0,0,0,2.24-.82,3.19,3.19,0,0,0,.78-2.3V3.48Q3.13.33.11.33V0h9V.33a2.93,2.93,0,0,0-2.34.87,3.45,3.45,0,0,0-.74,2.28V13Z" transform="translate(0.39 0.5)"/></svg>