<svg id="Layer_1" data-name="Layer 1" xmlns="http://www.w3.org/2000/svg" viewBox="0 0 451.16 454.54"><defs><style>.cls-1{fill:#231f20;stroke:#231f20;stroke-miterlimit:10;}</style></defs><path class="cls-1" d="M356.71,207.53V55.73q0-22.17-12-36.33T307.44,5.23V0H451.85V5.23q-25.25,0-37,14T403.2,55.73v343q0,49.88,48.65,49.88v4.92H307.44v-4.92q23.1,0,36.18-12.47t13.09-36.8v-178H96.84V398.74q0,23.72,13.39,36.79t35.87,13.09v4.92H1.69v-4.92q23.4,0,35.87-13.09T50,398.74v-343Q50,5.24,1.69,5.23V0H146.1V5.23q-25.56,0-37.41,14T96.84,55.73v151.8Z" transform="translate(-1.19 0.5)"/></svg>