<svg id="Layer_1" data-name="Layer 1" xmlns="http://www.w3.org/2000/svg" viewBox="0 0 57.27 57.69"><defs><style>.cls-1{fill:#231f20;stroke:#231f20;stroke-miterlimit:10;}</style></defs><path class="cls-1" d="M44.59,25.94V7a6.82,6.82,0,0,0-1.5-4.55A5.78,5.78,0,0,0,38.43.65V0h18V.65a5.7,5.7,0,0,0-4.62,1.76A6.87,6.87,0,0,0,50.4,7V49.84q0,6.24,6.08,6.24v.61h-18v-.61A6.31,6.31,0,0,0,43,54.52a6.06,6.06,0,0,0,1.63-4.6V27.67H12.11V49.84a6.11,6.11,0,0,0,1.67,4.6,6.15,6.15,0,0,0,4.48,1.64v.61H.21v-.61A5.92,5.92,0,0,0,4.7,54.44a6.39,6.39,0,0,0,1.56-4.6V7Q6.26.66.21.65V0H18.26V.65a5.78,5.78,0,0,0-4.67,1.76A6.78,6.78,0,0,0,12.11,7v19Z" transform="translate(0.29 0.5)"/></svg>