<svg id="Layer_1" data-name="Layer 1" xmlns="http://www.w3.org/2000/svg" viewBox="0 0 113.54 114.39"><defs><style>.cls-1{fill:#231f20;stroke:#231f20;stroke-miterlimit:10;}</style></defs><path class="cls-1" d="M89.18,51.88V13.93a13.52,13.52,0,0,0-3-9.08q-3-3.54-9.31-3.54V0H113V1.31q-6.31,0-9.23,3.5a13.77,13.77,0,0,0-2.93,9.12V99.68q0,12.48,12.16,12.47v1.24H76.86v-1.24q5.77,0,9-3.11t3.27-9.2V55.35h-65V99.68q0,5.94,3.35,9.2a12.28,12.28,0,0,0,9,3.27v1.24H.42v-1.24q5.85,0,9-3.27t3.12-9.2V13.93Q12.51,1.31.42,1.31V0H36.53V1.31q-6.39,0-9.36,3.5a13.68,13.68,0,0,0-3,9.12v38Z" transform="translate(0.08 0.5)"/></svg>