<svg id="Layer_1" data-name="Layer 1" xmlns="http://www.w3.org/2000/svg" viewBox="0 0 226.08 227.77"><defs><style>.cls-1{fill:#231f20;stroke:#231f20;stroke-miterlimit:10;}</style></defs><path class="cls-1" d="M178.19,103.76V27.87q0-11.08-6-18.17T153.56,2.62V0h72.21V2.62q-12.63,0-18.47,7t-5.85,18.25v171.5q0,24.93,24.32,24.94v2.46H153.56v-2.46q11.55,0,18.09-6.24t6.54-18.39v-89H48.26v88.68q0,11.85,6.7,18.4t17.93,6.54v2.46H.69v-2.46q11.7,0,17.94-6.54t6.23-18.4V27.87Q24.86,2.62.69,2.62V0h72.2V2.62q-12.78,0-18.7,7T48.26,27.87v75.89Z" transform="translate(-0.19 0.5)"/></svg>