<svg id="Layer_1" data-name="Layer 1" xmlns="http://www.w3.org/2000/svg" viewBox="0 0 12.68 29.35"><defs><style>.cls-1{fill:#231f20;stroke:#231f20;stroke-miterlimit:10;}</style></defs><path class="cls-1" d="M15,21.82V2.93A2.36,2.36,0,0,0,12.41.27V0h7.52V.27a2.85,2.85,0,0,0-1.79.65,2.51,2.51,0,0,0-.72,2V22.45A7.93,7.93,0,0,1,17,25.24a5,5,0,0,1-1.17,1.85,4.54,4.54,0,0,1-1.58,1,5.4,5.4,0,0,1-1.72.29A4.66,4.66,0,0,1,10.77,28a5.08,5.08,0,0,1-1.28-.75,11.79,11.79,0,0,1-1.07-1.06l.16-.18a4.62,4.62,0,0,0,3,1.1c1.47,0,2.41-.51,2.81-1.53A10.52,10.52,0,0,0,15,21.82Z" transform="translate(-7.75 0.5)"/></svg>