<svg id="Layer_1" data-name="Layer 1" xmlns="http://www.w3.org/2000/svg" viewBox="0 0 185.28 454.54"><defs><style>.cls-1{fill:#231f20;stroke:#231f20;stroke-miterlimit:10;}</style></defs><path class="cls-1" d="M239.44,349.08V46.8q0-41.11-40.85-42.4V0H318.82V4.4q-17.06.51-28.57,10.34T278.75,46.8V359.16q0,26.13-7.12,44.74t-18.74,29.47a70.27,70.27,0,0,1-25.21,15.52,84.46,84.46,0,0,1-27.54,4.65q-15.78,0-27.8-4.91a76.1,76.1,0,0,1-20.43-12,177.55,177.55,0,0,1-17.19-16.94l2.58-2.84q21.47,17.58,47.58,17.58,35.43,0,45-24.57T239.44,349.08Z" transform="translate(-134.04 0.5)"/></svg>