<svg id="Layer_1" data-name="Layer 1" xmlns="http://www.w3.org/2000/svg" viewBox="0 0 24.19 57.69"><defs><style>.cls-1{fill:#231f20;stroke:#231f20;stroke-miterlimit:10;}</style></defs><path class="cls-1" d="M29.93,43.63V5.85c0-3.43-1.7-5.19-5.11-5.3V0h15V.55a5.56,5.56,0,0,0-3.57,1.29,5,5,0,0,0-1.44,4V44.9A15.54,15.54,0,0,1,34,50.49a9.56,9.56,0,0,1-2.34,3.68,8.75,8.75,0,0,1-3.15,1.94,10.49,10.49,0,0,1-3.44.58,9.13,9.13,0,0,1-3.48-.61A9.54,9.54,0,0,1,19,54.58a22.4,22.4,0,0,1-2.15-2.12l.32-.36a9.14,9.14,0,0,0,5.95,2.2c2.95,0,4.83-1,5.62-3.07A21,21,0,0,0,29.93,43.63Z" transform="translate(-16.17 0.5)"/></svg>