<svg id="Layer_1" data-name="Layer 1" xmlns="http://www.w3.org/2000/svg" viewBox="0 0 47.2 114.39"><defs><style>.cls-1{fill:#231f20;stroke:#231f20;stroke-miterlimit:10;}</style></defs><path class="cls-1" d="M59.86,87.27V11.7q0-10.27-10.21-10.6V0H79.71V1.1a11.24,11.24,0,0,0-7.15,2.58q-2.86,2.46-2.87,8V89.79A31.48,31.48,0,0,1,67.91,101a19.3,19.3,0,0,1-4.69,7.37,17.51,17.51,0,0,1-6.3,3.88A21,21,0,0,1,50,113.39a18.21,18.21,0,0,1-6.94-1.23,18.74,18.74,0,0,1-5.11-3,42.39,42.39,0,0,1-4.3-4.23l.65-.71a18.3,18.3,0,0,0,11.89,4.39q8.85,0,11.25-6.14A42.17,42.17,0,0,0,59.86,87.27Z" transform="translate(-33.01 0.5)"/></svg>