<svg id="Layer_1" data-name="Layer 1" xmlns="http://www.w3.org/2000/svg" viewBox="0 0 93.22 227.77"><defs><style>.cls-1{fill:#231f20;stroke:#231f20;stroke-miterlimit:10;}</style></defs><path class="cls-1" d="M119.72,174.54V23.4q0-20.55-20.43-21.2V0h60.12V2.2a22.31,22.31,0,0,0-14.28,5.17q-5.76,4.92-5.75,16V179.58q0,13.06-3.56,22.37a38.62,38.62,0,0,1-9.37,14.74,35.08,35.08,0,0,1-12.61,7.75,42,42,0,0,1-13.77,2.33,36.69,36.69,0,0,1-13.9-2.45,38.07,38.07,0,0,1-10.21-6,88.4,88.4,0,0,1-8.6-8.48l1.29-1.42a36.67,36.67,0,0,0,23.79,8.79q17.72,0,22.5-12.28T119.72,174.54Z" transform="translate(-66.69 0.5)"/></svg>