<svg id="Layer_1" data-name="Layer 1" xmlns="http://www.w3.org/2000/svg" viewBox="0 0 25.75 29.35"><defs><style>.cls-1{fill:#231f20;stroke:#231f20;stroke-miterlimit:10;}</style></defs><path class="cls-1" d="M25.32,0V.33a12.08,12.08,0,0,0-2.11.29,4.2,4.2,0,0,0-1.84,1l-.91.85L19.93,3l-9.66,9.55,11.54,13a7.11,7.11,0,0,0,2.3,1.89,9.69,9.69,0,0,0,2.44.56v.31H20.43L7.75,14V24.92c0,2,1,3,3,3.12v.31h-9V28a4.35,4.35,0,0,0,1.5-.32,2.38,2.38,0,0,0,1.09-1,3.41,3.41,0,0,0,.43-1.84V3.41A2.79,2.79,0,0,0,3.93,1,3.79,3.79,0,0,0,1.8.33V0h9V.33q-3,.09-3,3.08V13.87L18.62,3s0,0,.08-.11a2.25,2.25,0,0,0,.9-1.43.78.78,0,0,0-.53-.84A7.48,7.48,0,0,0,17.48.33V0Z" transform="translate(-1.3 0.5)"/></svg>