<svg id="Layer_1" data-name="Layer 1" xmlns="http://www.w3.org/2000/svg" viewBox="0 0 396.97 454.54"><defs><style>.cls-1{fill:#231f20;stroke:#231f20;stroke-miterlimit:10;}</style></defs><path class="cls-1" d="M405.05,0V5.23a212.72,212.72,0,0,0-33.72,4.62q-14.62,3.4-29.4,16.94Q331.15,36.95,327.3,40.34T318.84,48L164.27,200.75,349,409.51q21.54,24,36.79,30.18t38.95,8.93v4.92H326.84L123.93,224.15V398.74q0,48.35,48.65,49.88v4.92H28.79v-4.92a68.84,68.84,0,0,0,24-5.08q10.45-4.46,17.39-15.4t6.93-29.4V54.5q0-28.64-14.32-38.64t-34-10.63V0H172.58V5.23Q123.92,6.79,123.93,54.5V222l174-174c0,.42.41-.2,1.23-1.84Q313.59,32.95,313.6,23.4q0-10.77-8.47-13.55t-25.4-4.62V0Z" transform="translate(-28.29 0.5)"/></svg>