<svg id="Layer_1" data-name="Layer 1" xmlns="http://www.w3.org/2000/svg" viewBox="0 0 50.5 57.69"><defs><style>.cls-1{fill:#231f20;stroke:#231f20;stroke-miterlimit:10;}</style></defs><path class="cls-1" d="M50.63,0V.65a27.44,27.44,0,0,0-4.21.58,8.31,8.31,0,0,0-3.68,2.12c-.9.85-1.51,1.41-1.83,1.69L39.85,6,20.53,25.09l23.1,26.1A14.08,14.08,0,0,0,48.23,55a19.19,19.19,0,0,0,4.86,1.12v.61H40.86L15.49,28V49.84q0,6,6.08,6.24v.61H3.6v-.61a8.59,8.59,0,0,0,3-.64,4.82,4.82,0,0,0,2.18-1.92,6.89,6.89,0,0,0,.86-3.68v-43Q9.64,3.24,7.85,2A7.76,7.76,0,0,0,3.6.65V0h18V.65Q15.5.85,15.49,6.81V27.75L37.24,6c0,.06,0,0,.15-.23,1.21-1.1,1.81-2,1.81-2.84a1.57,1.57,0,0,0-1.06-1.7A17.19,17.19,0,0,0,35,.65V0Z" transform="translate(-3.1 0.5)"/></svg>