<svg id="Layer_1" data-name="Layer 1" xmlns="http://www.w3.org/2000/svg" viewBox="0 0 99.99 114.39"><defs><style>.cls-1{fill:#231f20;stroke:#231f20;stroke-miterlimit:10;}</style></defs><path class="cls-1" d="M101.26,0V1.31a52.73,52.73,0,0,0-8.43,1.15A16.8,16.8,0,0,0,85.48,6.7q-2.69,2.54-3.65,3.38c-.65.57-1.35,1.21-2.12,1.93L41.07,50.19l46.18,52.19q5.39,6,9.2,7.54a38.07,38.07,0,0,0,9.74,2.23v1.24H81.71L31,56V99.68q0,12.09,12.17,12.47v1.24H7.2v-1.24a17,17,0,0,0,6-1.27A9.52,9.52,0,0,0,17.55,107a13.61,13.61,0,0,0,1.73-7.36V13.62q0-7.15-3.58-9.66A15.35,15.35,0,0,0,7.2,1.31V0H43.15V1.31Q31,1.7,31,13.62V55.5L74.47,12c0,.1.11,0,.31-.46q3.61-3.32,3.62-5.7c0-1.8-.71-2.92-2.12-3.39a33.85,33.85,0,0,0-6.35-1.15V0Z" transform="translate(-6.7 0.5)"/></svg>