<svg id="Layer_1" data-name="Layer 1" xmlns="http://www.w3.org/2000/svg" viewBox="0 0 198.98 227.77"><defs><style>.cls-1{fill:#231f20;stroke:#231f20;stroke-miterlimit:10;}</style></defs><path class="cls-1" d="M202.52,0V2.62a105.38,105.38,0,0,0-16.86,2.31q-7.29,1.7-14.69,8.46-5.4,5.09-7.32,6.78T159.42,24L82.13,100.38,174.5,204.76q10.77,12,18.4,15.08t19.48,4.47v2.46h-49L62,112.08v87.29q0,24.16,24.32,24.94v2.46H14.4v-2.46a34.25,34.25,0,0,0,12-2.54,19.18,19.18,0,0,0,8.7-7.7q3.46-5.46,3.47-14.7V27.25q0-14.32-7.16-19.32a30.61,30.61,0,0,0-17-5.31V0H86.29V2.62Q62,3.39,62,27.25V111l87-87c0,.2.21-.11.61-.93q7.24-6.61,7.24-11.39,0-5.38-4.23-6.77a66.25,66.25,0,0,0-12.7-2.31V0Z" transform="translate(-13.9 0.5)"/></svg>