<svg id="Layer_1" data-name="Layer 1" xmlns="http://www.w3.org/2000/svg" viewBox="0 0 19.06 29.35"><defs><style>.cls-1{fill:#231f20;stroke:#231f20;stroke-miterlimit:10;}</style></defs><path class="cls-1" d="M5.21,28h.38a2.49,2.49,0,0,0,1.84-.82,3.15,3.15,0,0,0,.8-2.3V3.52a2.93,2.93,0,0,0-.9-2.46A3.5,3.5,0,0,0,5.21.33V0h9.06V.33A3.67,3.67,0,0,0,12.15,1a2.91,2.91,0,0,0-.92,2.48V24.21a3.08,3.08,0,0,0,.92,2.56,5.06,5.06,0,0,0,3,.71h2.45a7.14,7.14,0,0,0,2.55-.38,3.35,3.35,0,0,0,1.51-1.18,10.85,10.85,0,0,0,1.13-2.23h.33l-1.08,4.66H5.21Z" transform="translate(-4.71 0.5)"/></svg>