<svg id="Layer_1" data-name="Layer 1" xmlns="http://www.w3.org/2000/svg" viewBox="0 0 37 57.69"><defs><style>.cls-1{fill:#231f20;stroke:#231f20;stroke-miterlimit:10;}</style></defs><path class="cls-1" d="M10.41,56.08h.77a5,5,0,0,0,3.68-1.64,6.32,6.32,0,0,0,1.6-4.6V7q0-3.54-1.79-4.92A7.19,7.19,0,0,0,10.41.65V0H28.54V.65a7.46,7.46,0,0,0-4.23,1.43q-1.85,1.35-1.85,5V48.42q0,3.69,1.85,5.12t6,1.42h4.88a14,14,0,0,0,5.11-.77,6.62,6.62,0,0,0,3-2.35,22.45,22.45,0,0,0,2.27-4.46h.65l-2.16,9.31H10.41Z" transform="translate(-9.91 0.5)"/></svg>