<svg id="Layer_1" data-name="Layer 1" xmlns="http://www.w3.org/2000/svg" viewBox="0 0 72.87 114.39"><defs><style>.cls-1{fill:#231f20;stroke:#231f20;stroke-miterlimit:10;}</style></defs><path class="cls-1" d="M20.82,112.15h1.54a10,10,0,0,0,7.35-3.27q3.2-3.27,3.2-9.2V14.09q0-7.08-3.58-9.86a14.28,14.28,0,0,0-8.51-2.92V0H57.08V1.31a14.8,14.8,0,0,0-8.47,2.85q-3.69,2.69-3.69,9.93V96.84c0,4.92,1.23,8.34,3.69,10.23s6.49,2.85,12.09,2.85h9.77a27.71,27.71,0,0,0,10.2-1.54,13.25,13.25,0,0,0,6-4.69,44.44,44.44,0,0,0,4.55-8.93h1.3l-4.31,18.63H20.82Z" transform="translate(-20.32 0.5)"/></svg>