<svg id="Layer_1" data-name="Layer 1" xmlns="http://www.w3.org/2000/svg" viewBox="0 0 144.61 227.77"><defs><style>.cls-1{fill:#231f20;stroke:#231f20;stroke-miterlimit:10;}</style></defs><path class="cls-1" d="M41.64,224.31h3.08c5.55,0,10.44-2.18,14.71-6.54s6.38-10.5,6.38-18.4V28.17q0-14.16-7.15-19.7a28.46,28.46,0,0,0-17-5.85V0h72.52V2.62A29.67,29.67,0,0,0,97.22,8.31q-7.39,5.4-7.39,19.86v165.5q0,14.78,7.39,20.48t24.17,5.69h19.55q12.78,0,20.41-3.08a26.67,26.67,0,0,0,12.08-9.39q4.45-6.3,9.08-17.85h2.62l-8.62,37.25H41.64Z" transform="translate(-41.14 0.5)"/></svg>