<svg id="Layer_1" data-name="Layer 1" xmlns="http://www.w3.org/2000/svg" viewBox="0 0 29.35 26.97"><defs><style>.cls-1{fill:#231f20;stroke:#231f20;stroke-miterlimit:10;}</style></defs><path class="cls-1" d="M27.22,1.63v.29l-1,.15a1.63,1.63,0,0,0-.68.35,1.94,1.94,0,0,0-.72.83,4.69,4.69,0,0,0-.18,1.36.42.42,0,0,0,0,.31l.87,18.63a4,4,0,0,0,.56,2c.35.57,1.12.86,2.3.87v.27H20.23v-.27a3,3,0,0,0,2.16-.93,3.65,3.65,0,0,0,.47-2.36L22,3.88h-.07L13.08,26.71,4.7,4.72H4.63l-.9,17.77a6.72,6.72,0,0,0,.18,2.27,2,2,0,0,0,.79,1.16,4.27,4.27,0,0,0,1.62.52v.27H0v-.27a2.7,2.7,0,0,0,1.84-.58,2.6,2.6,0,0,0,.82-1.4A15.86,15.86,0,0,0,3,22.15L4,3.76a.77.77,0,0,0-.21-.36,3.07,3.07,0,0,0-.5-.53,3.18,3.18,0,0,0-.57-.42,2.75,2.75,0,0,0-1-.42C1.4,2,1,2,.49,1.92V1.63H6.32l7.76,20.52L22,1.63Z" transform="translate(0.5 -1.13)"/></svg>