<svg id="Layer_1" data-name="Layer 1" xmlns="http://www.w3.org/2000/svg" viewBox="0 0 454.54 403.14"><defs><style>.cls-1{fill:#231f20;stroke:#231f20;stroke-miterlimit:10;}</style></defs><path class="cls-1" d="M435.56,26.15v4.63q-11.43,1.37-16.34,2.31c-3.27.65-6.9,2.5-10.9,5.59Q399.06,45.77,396.75,52t-2.86,21.79a7.48,7.48,0,0,0,0,4.9l13.89,298q.56,18.79,9,32.41T453.54,423v4.35H323.61V423q25.59-2.73,34.59-14.85t7.63-37.73L351.94,62.11h-1.09L209.2,427.39,75.18,75.45H74.09L59.66,359.84q-1.09,23.43,2.86,36.36t12.66,18.53q8.71,5.58,25.88,8.31v4.35H0V423q19.34-.27,29.42-9.27A42.18,42.18,0,0,0,42.63,391.3q3.12-13.49,4.77-36.91L63.47,60.2q0-1.64-3.27-5.86a63.16,63.16,0,0,0-8-8.44A54.67,54.67,0,0,0,43,39.22Q33.77,33.5,27,32.55T7.9,30.78V26.15h93.16L225.27,354.39,351.39,26.15Z" transform="translate(0.5 -25.65)"/></svg>