<svg id="Layer_1" data-name="Layer 1" xmlns="http://www.w3.org/2000/svg" viewBox="0 0 57.69 52.05"><defs><style>.cls-1{fill:#231f20;stroke:#231f20;stroke-miterlimit:10;}</style></defs><path class="cls-1" d="M54.45,3.27v.58c-1,.11-1.64.21-2.05.29a3.33,3.33,0,0,0-1.36.7A4.13,4.13,0,0,0,49.59,6.5a9.86,9.86,0,0,0-.35,2.73.91.91,0,0,0,0,.61L51,47.09a7.94,7.94,0,0,0,1.13,4q1,1.71,4.59,1.74v.54H40.45v-.54q3.21-.35,4.33-1.86a7.29,7.29,0,0,0,.95-4.71L44,7.76h-.13L26.15,53.42,9.4,9.43H9.26L7.46,45a14,14,0,0,0,.35,4.54A4,4,0,0,0,9.4,51.84a8.72,8.72,0,0,0,3.23,1v.54H0v-.54a5.47,5.47,0,0,0,3.68-1.16,5.24,5.24,0,0,0,1.65-2.81,30.25,30.25,0,0,0,.59-4.61l2-36.77a1.61,1.61,0,0,0-.41-.74,7.45,7.45,0,0,0-1-1A7.5,7.5,0,0,0,5.38,4.9a5.53,5.53,0,0,0-2-.83C2.8,4,2,3.92,1,3.85V3.27H12.63l15.53,41,15.76-41Z" transform="translate(0.5 -2.77)"/></svg>