<svg id="Layer_1" data-name="Layer 1" xmlns="http://www.w3.org/2000/svg" viewBox="0 0 114.39 102.2"><defs><style>.cls-1{fill:#231f20;stroke:#231f20;stroke-miterlimit:10;}</style></defs><path class="cls-1" d="M108.89,6.54V7.7c-1.91.22-3.27.42-4.08.57a6.82,6.82,0,0,0-2.73,1.4A8.19,8.19,0,0,0,99.19,13a19.37,19.37,0,0,0-.72,5.44,2,2,0,0,0,0,1.23L102,94.18a16,16,0,0,0,2.24,8.11q2.11,3.4,9.2,3.47v1.09H80.9v-1.09q6.41-.69,8.65-3.71c1.5-2,2.13-5.17,1.91-9.43L88,15.53h-.27L52.3,106.85l-33.5-88h-.28L14.91,90a28.09,28.09,0,0,0,.72,9.09,8,8,0,0,0,3.17,4.63,17.32,17.32,0,0,0,6.46,2.08v1.09H0v-1.09q4.83-.08,7.35-2.32a10.51,10.51,0,0,0,3.31-5.61,61.94,61.94,0,0,0,1.19-9.23l4-73.55a3.35,3.35,0,0,0-.82-1.46,15.08,15.08,0,0,0-2-2.12,12.79,12.79,0,0,0-2.28-1.66,10.76,10.76,0,0,0-4-1.67C5.61,8,4,7.83,2,7.7V6.54H25.26L56.32,88.6,87.85,6.54Z" transform="translate(0.5 -6.04)"/></svg>