<svg id="Layer_1" data-name="Layer 1" xmlns="http://www.w3.org/2000/svg" viewBox="0 0 227.77 202.52"><defs><style>.cls-1{fill:#231f20;stroke:#231f20;stroke-miterlimit:10;}</style></defs><path class="cls-1" d="M217.78,13.08v2.31c-3.81.46-6.54.84-8.17,1.16a13.64,13.64,0,0,0-5.45,2.79q-4.64,3.54-5.78,6.67t-1.44,10.9a3.81,3.81,0,0,0,0,2.45l6.95,149a32,32,0,0,0,4.49,16.21q4.23,6.81,18.39,7v2.18h-65v-2.18q12.81-1.36,17.3-7.43t3.82-18.86L176,31.05h-.55L104.6,213.7l-67-176h-.54L29.83,179.92q-.55,11.72,1.42,18.18t6.34,9.26q4.35,2.8,12.94,4.16v2.18H0v-2.18q9.66-.14,14.71-4.63a21.15,21.15,0,0,0,6.61-11.24A124.88,124.88,0,0,0,23.7,177.2l8-147.1c0-.54-.54-1.52-1.63-2.93a31.89,31.89,0,0,0-4-4.22,27.05,27.05,0,0,0-4.56-3.34,21.77,21.77,0,0,0-8-3.33C11.21,16,8,15.66,4,15.39V13.08H50.53L112.64,177.2,175.7,13.08Z" transform="translate(0.5 -12.58)"/></svg>