<svg id="Layer_1" data-name="Layer 1" xmlns="http://www.w3.org/2000/svg" viewBox="0 0 29.35 27.87"><defs><style>.cls-1{fill:#231f20;stroke:#231f20;stroke-miterlimit:10;}</style></defs><path class="cls-1" d="M28.35.74V1a5.71,5.71,0,0,0-1.58.38,1.84,1.84,0,0,0-.9,1,5.86,5.86,0,0,0-.32,2.18v23h-.18L5.25,5.15V21.27a19.8,19.8,0,0,0,.16,3,3.6,3.6,0,0,0,.46,1.41,2.8,2.8,0,0,0,2.3,1V27H1.6v-.28a3.35,3.35,0,0,0,1.72-.48,2.36,2.36,0,0,0,.87-1.53,16.14,16.14,0,0,0,.26-3.35V4.21l-.87-1A7.2,7.2,0,0,0,1.73,1.57,6.09,6.09,0,0,0,0,1V.74H4.93L24.75,23V6a19.55,19.55,0,0,0-.15-2.84,2.43,2.43,0,0,0-.8-1.52,3.25,3.25,0,0,0-2-.62V.74Z" transform="translate(0.5 -0.24)"/></svg>