<svg id="Layer_1" data-name="Layer 1" xmlns="http://www.w3.org/2000/svg" viewBox="0 0 454.54 430.92"><defs><style>.cls-1{fill:#231f20;stroke:#231f20;stroke-miterlimit:10;}</style></defs><path class="cls-1" d="M453.54,23.63v4.84q-15.94,2-25.19,6.12T414,50.82q-5.13,12.1-5.13,34.87V453.54H406L84,94.24V352.18q0,32.19,2.56,47.83t7.4,22.5q10.53,14.81,36.73,15.94V443H25.62v-4.56q17.66-.85,27.48-7.54t13.95-24.49q4.13-17.79,4.13-53.67V79.15l-14-15.66Q38.71,42.41,27.62,36.87T0,28.47V23.63H78.86L396,379V108.19q0-30.47-2.42-45.56T380.8,38.43q-10.4-9.1-32.6-10V23.63Z" transform="translate(0.5 -23.13)"/></svg>