<svg id="Layer_1" data-name="Layer 1" xmlns="http://www.w3.org/2000/svg" viewBox="0 0 57.69 54.74"><defs><style>.cls-1{fill:#231f20;stroke:#231f20;stroke-miterlimit:10;}</style></defs><path class="cls-1" d="M56.69,1.48v.6a11.29,11.29,0,0,0-3.15.77,3.57,3.57,0,0,0-1.79,2,11.52,11.52,0,0,0-.64,4.36v46h-.36L10.5,10.3V42.55a41.09,41.09,0,0,0,.32,6,7,7,0,0,0,.92,2.81q1.32,1.84,4.6,2v.57H3.2v-.57a6.73,6.73,0,0,0,3.44-.94,4.84,4.84,0,0,0,1.74-3.06,31.7,31.7,0,0,0,.52-6.71V8.42l-1.75-2a14.32,14.32,0,0,0-3.7-3.33A12.58,12.58,0,0,0,0,2.08v-.6H9.86L49.5,45.89V12.05a39.6,39.6,0,0,0-.3-5.7,4.89,4.89,0,0,0-1.6-3,6.46,6.46,0,0,0-4.07-1.25v-.6Z" transform="translate(0.5 -0.98)"/></svg>