<svg id="Layer_1" data-name="Layer 1" xmlns="http://www.w3.org/2000/svg" viewBox="0 0 114.39 108.48"><defs><style>.cls-1{fill:#231f20;stroke:#231f20;stroke-miterlimit:10;}</style></defs><path class="cls-1" d="M113.39,3V4.16a23.35,23.35,0,0,0-6.3,1.53,7.24,7.24,0,0,0-3.6,4.06,23.31,23.31,0,0,0-1.28,8.72v92h-.71L21,20.61V85.09a80.67,80.67,0,0,0,.64,12,14,14,0,0,0,1.85,5.62q2.63,3.7,9.18,4v1.14H6.41v-1.14a13.16,13.16,0,0,0,6.86-1.89q2.46-1.67,3.49-6.12a64.05,64.05,0,0,0,1-13.41V16.83l-3.48-3.91Q9.68,7.66,6.9,6.26A25.37,25.37,0,0,0,0,4.16V3H19.72L99,91.78V24.09a77.13,77.13,0,0,0-.61-11.38,9.78,9.78,0,0,0-3.2-6.05q-2.6-2.28-8.15-2.5V3Z" transform="translate(0.5 -2.45)"/></svg>