<svg id="Layer_1" data-name="Layer 1" xmlns="http://www.w3.org/2000/svg" viewBox="0 0 227.77 215.96"><defs><style>.cls-1{fill:#231f20;stroke:#231f20;stroke-miterlimit:10;}</style></defs><path class="cls-1" d="M226.77,5.91V8.33a45.17,45.17,0,0,0-12.59,3.06q-4.63,2.07-7.19,8.11t-2.56,17.44V220.87H203L42,41.21v129q0,16.08,1.28,23.91T47,205.35q5.27,7.41,18.36,8v2.28H12.81v-2.28c5.88-.28,10.47-1.54,13.74-3.77s5.6-6.31,7-12.24,2.06-14.88,2.06-26.84V33.67l-7-7.83q-9.25-10.53-14.8-13.31A50.13,50.13,0,0,0,0,8.33V5.91H39.43L198,183.57V48.19q0-15.24-1.21-22.78a19.68,19.68,0,0,0-6.4-12.1q-5.22-4.56-16.31-5V5.91Z" transform="translate(0.5 -5.41)"/></svg>