<svg id="Layer_1" data-name="Layer 1" xmlns="http://www.w3.org/2000/svg" viewBox="0 0 29.38 29.35"><defs><style>.cls-1{fill:#231f20;stroke:#231f20;stroke-miterlimit:10;}</style></defs><path class="cls-1" d="M28.38,14.24a13.91,13.91,0,0,1-1.86,7,14.18,14.18,0,0,1-5.1,5.16,13.62,13.62,0,0,1-7.15,1.93,14,14,0,0,1-7.22-1.93,14.09,14.09,0,0,1-5.16-5.18A14,14,0,0,1,0,14.13,13.82,13.82,0,0,1,4.26,4.05a14.39,14.39,0,0,1,4.59-3A14,14,0,0,1,14.24,0a14.17,14.17,0,0,1,9.83,3.94,13.59,13.59,0,0,1,3.16,4.54A14.14,14.14,0,0,1,28.38,14.24Zm-3.21.07q0-5.35-1.89-8.39a9.79,9.79,0,0,0-4.38-4,12.09,12.09,0,0,0-4.66-1,12,12,0,0,0-3.52.55,10,10,0,0,0-3.55,2A10.76,10.76,0,0,0,4.34,7.58,17.38,17.38,0,0,0,3.23,14.2a17.8,17.8,0,0,0,.92,6,11.22,11.22,0,0,0,2.53,4.21,9.76,9.76,0,0,0,3.56,2.36,11.49,11.49,0,0,0,4,.72,11.62,11.62,0,0,0,3.8-.67,9.65,9.65,0,0,0,3.52-2.17,10.73,10.73,0,0,0,2.59-4.08A17.65,17.65,0,0,0,25.17,14.31Z" transform="translate(0.5 0.5)"/></svg>