<svg id="Layer_1" data-name="Layer 1" xmlns="http://www.w3.org/2000/svg" viewBox="0 0 455.12 454.54"><defs><style>.cls-1{fill:#231f20;stroke:#231f20;stroke-miterlimit:10;}</style></defs><path class="cls-1" d="M454.12,227.79a221.18,221.18,0,0,1-29.89,112.29,226.17,226.17,0,0,1-81.52,82.69q-51.63,30.76-114.34,30.77-63,0-115.5-30.77a225.53,225.53,0,0,1-82.68-83Q0,287.59,0,226q0-47.25,17.94-88.81A220.43,220.43,0,0,1,68.1,64.75a232.83,232.83,0,0,1,73.5-47.83A227.57,227.57,0,0,1,385.14,63a221.42,221.42,0,0,1,50.61,72.62Q454.13,177.62,454.12,227.79ZM402.79,229q0-85.76-30.33-134.17t-70-64.89q-39.68-16.48-74.67-16.48-27.12,0-56.29,8.89T114.77,54.83q-27.55,23.63-45.35,66.5T51.62,227.21q0,55.41,14.73,96.68t40.55,67.38q25.8,26.1,56.87,37.62a183.06,183.06,0,0,0,125.42.88q30.76-10.65,56.29-34.71t41.41-65.33Q402.79,288.47,402.79,229Z" transform="translate(0.5 0.5)"/></svg>