<svg id="Layer_1" data-name="Layer 1" xmlns="http://www.w3.org/2000/svg" viewBox="0 0 57.69 57.62"><defs><style>.cls-1{fill:#231f20;stroke:#231f20;stroke-miterlimit:10;}</style></defs><path class="cls-1" d="M56.69,28.47a27.68,27.68,0,0,1-3.72,14A28.27,28.27,0,0,1,42.78,52.82a27.33,27.33,0,0,1-14.27,3.84A28.35,28.35,0,0,1,3.77,42.46,27.92,27.92,0,0,1,0,28.26,27.69,27.69,0,0,1,8.5,8.12a29,29,0,0,1,9.18-6A28.44,28.44,0,0,1,48.09,7.9,27.65,27.65,0,0,1,54.4,17,28.35,28.35,0,0,1,56.69,28.47Zm-6.41.15q0-10.71-3.78-16.75t-8.74-8.1a24.39,24.39,0,0,0-9.32-2.06,24.08,24.08,0,0,0-7,1.11,19.71,19.71,0,0,0-7.08,4.06,21.52,21.52,0,0,0-5.66,8.3A34.62,34.62,0,0,0,6.45,28.4,36,36,0,0,0,8.28,40.47a22.49,22.49,0,0,0,5.07,8.41,19.32,19.32,0,0,0,7.1,4.7,22.83,22.83,0,0,0,15.66.11,19.5,19.5,0,0,0,7-4.33,21.79,21.79,0,0,0,5.18-8.16A35.2,35.2,0,0,0,50.28,28.62Z" transform="translate(0.5 0.47)"/></svg>