<svg id="Layer_1" data-name="Layer 1" xmlns="http://www.w3.org/2000/svg" viewBox="0 0 114.39 114.24"><defs><style>.cls-1{fill:#231f20;stroke:#231f20;stroke-miterlimit:10;}</style></defs><path class="cls-1" d="M113.42,56.87a55.3,55.3,0,0,1-7.46,28A56.46,56.46,0,0,1,85.6,105.56a54.68,54.68,0,0,1-28.54,7.68A56.74,56.74,0,0,1,7.57,84.84,55.8,55.8,0,0,1,0,56.44,55.33,55.33,0,0,1,17,16.17a58.2,58.2,0,0,1,18.35-12A56.82,56.82,0,0,1,96.2,15.73a55.24,55.24,0,0,1,12.63,18.13A56.75,56.75,0,0,1,113.42,56.87Zm-12.81.3q0-21.42-7.58-33.5T75.55,7.46A48.73,48.73,0,0,0,56.91,3.35a48.09,48.09,0,0,0-14,2.22,39.69,39.69,0,0,0-14.17,8.12q-6.89,5.9-11.32,16.6T12.93,56.73q0,13.83,3.67,24.14A45,45,0,0,0,26.73,97.69a38.93,38.93,0,0,0,14.2,9.4,45.79,45.79,0,0,0,31.31.22A39.19,39.19,0,0,0,86.3,98.64q6.36-6,10.34-16.31T100.61,57.17Z" transform="translate(0.46 0.5)"/></svg>