<svg id="Layer_1" data-name="Layer 1" xmlns="http://www.w3.org/2000/svg" viewBox="0 0 227.26 226.97"><defs><style>.cls-1{fill:#231f20;stroke:#231f20;stroke-miterlimit:10;}</style></defs><path class="cls-1" d="M226.77,113.89a110.1,110.1,0,0,1-14.9,56A112.51,112.51,0,0,1,171.26,211q-25.72,15.33-57,15.33A113.24,113.24,0,0,1,15.55,169.7,111.31,111.31,0,0,1,.51,113,110.43,110.43,0,0,1,34.44,32.66,116,116,0,0,1,71.07,8.83a113.37,113.37,0,0,1,121.33,23A110.34,110.34,0,0,1,217.62,68,113.38,113.38,0,0,1,226.77,113.89Zm-25.57.59q0-42.74-15.12-66.85T151.21,15.3Q131.44,7.08,114,7.09a96.11,96.11,0,0,0-28,4.43q-14.53,4.43-28.27,16.2T35.1,60.85q-8.87,21.36-8.87,52.75,0,27.61,7.34,48.18t20.2,33.57a78,78,0,0,0,28.34,18.74,91.22,91.22,0,0,0,62.49.44,77.69,77.69,0,0,0,28-17.3q12.72-12,20.63-32.55T201.2,114.48Z" transform="translate(-0.01 0.1)"/></svg>