<svg id="Layer_1" data-name="Layer 1" xmlns="http://www.w3.org/2000/svg" viewBox="0 0 19.72 29.35"><defs><style>.cls-1{fill:#231f20;stroke:#231f20;stroke-miterlimit:10;}</style></defs><path class="cls-1" d="M4.81.33V0h9.3a12,12,0,0,1,4.1.64,8.47,8.47,0,0,1,3,1.73A7.14,7.14,0,0,1,23,4.84a7.34,7.34,0,0,1,.59,2.9A7.73,7.73,0,0,1,23,10.59,6.54,6.54,0,0,1,21.26,13a8.42,8.42,0,0,1-3.07,1.7,14,14,0,0,1-4.39.64c-.53,0-1.54-.08-3-.23v9.77c0,2,1,3,3.08,3.12v.31h-9V28A3.49,3.49,0,0,0,7,27.28a2.93,2.93,0,0,0,.85-2.36V3.48a3.73,3.73,0,0,0-.31-1.63A2.19,2.19,0,0,0,6.82.91,3.07,3.07,0,0,0,5.9.5L5.2.33Zm6,.67V14.36a16.27,16.27,0,0,0,2.92.27,7.66,7.66,0,0,0,4.67-1.42c1.28-.94,1.91-2.69,1.91-5.24a7.86,7.86,0,0,0-1.68-5.19,6.27,6.27,0,0,0-5.11-2A14.94,14.94,0,0,0,10.76,1Z" transform="translate(-4.31 0.5)"/></svg>