<svg id="Layer_1" data-name="Layer 1" xmlns="http://www.w3.org/2000/svg" viewBox="0 0 300.59 454.54"><defs><style>.cls-1{fill:#231f20;stroke:#231f20;stroke-miterlimit:10;}</style></defs><path class="cls-1" d="M77,5.23V0H225.69Q263,0,291.43,10.16t47.42,27.71a115.79,115.79,0,0,1,28.33,39.57,117.11,117.11,0,0,1,9.39,46.34,122.34,122.34,0,0,1-8.78,45.72,105.28,105.28,0,0,1-27.56,39.11Q321.45,225.7,291,235.85T220.77,246q-12.63,0-48.65-3.7V398.74q0,48.35,49.26,49.88v4.92H77v-4.92q21.24-.62,34.94-12.17t13.71-37.71v-343q0-15.7-4.93-26.17T109.15,14.63A48.07,48.07,0,0,0,94.37,8Q86.21,5.85,83.13,5.23ZM172.12,16V229.7a260.56,260.56,0,0,0,46.8,4.31q44,0,74.67-22.63t30.63-83.91q0-50.49-26.94-83T215.53,12A244.84,244.84,0,0,0,172.12,16Z" transform="translate(-76.48 0.5)"/></svg>