<svg id="Layer_1" data-name="Layer 1" xmlns="http://www.w3.org/2000/svg" viewBox="0 0 75.9 114.39"><defs><style>.cls-1{fill:#231f20;stroke:#231f20;stroke-miterlimit:10;}</style></defs><path class="cls-1" d="M18.55,1.31V0H55.73A48.94,48.94,0,0,1,72.17,2.54,33.83,33.83,0,0,1,84,9.47a28.7,28.7,0,0,1,7.08,9.89,29.13,29.13,0,0,1,2.35,11.58,30.66,30.66,0,0,1-2.19,11.44,26.46,26.46,0,0,1-6.89,9.77A34,34,0,0,1,72.05,59,55.28,55.28,0,0,1,54.5,61.5q-3.15,0-12.16-.92v39.1q0,12.09,12.31,12.47v1.24H18.55v-1.24a13.7,13.7,0,0,0,8.74-3q3.42-2.88,3.43-9.43V13.93a15.35,15.35,0,0,0-1.24-6.54A8.9,8.9,0,0,0,26.6,3.66,12,12,0,0,0,22.9,2c-1.36-.36-2.29-.59-2.81-.69ZM42.34,4V57.42A65.15,65.15,0,0,0,54,58.5q11,0,18.67-5.66t7.66-21q0-12.63-6.74-20.75T53.19,3A61.61,61.61,0,0,0,42.34,4Z" transform="translate(-18.05 0.5)"/></svg>