<svg id="Layer_1" data-name="Layer 1" xmlns="http://www.w3.org/2000/svg" viewBox="0 0 150.8 227.77"><defs><style>.cls-1{fill:#231f20;stroke:#231f20;stroke-miterlimit:10;}</style></defs><path class="cls-1" d="M38.49,2.62V0h74.36q18.62,0,32.87,5.08a67.88,67.88,0,0,1,23.7,13.86,57.48,57.48,0,0,1,14.16,19.78,58.28,58.28,0,0,1,4.7,23.17,61.11,61.11,0,0,1-4.39,22.86,52.57,52.57,0,0,1-13.77,19.55q-9.41,8.55-24.64,13.63T110.38,123q-6.31,0-24.32-1.85v78.21q0,24.16,24.63,24.94v2.46H38.49v-2.46Q49.11,224,56,218.22t6.85-18.85V27.87a30.73,30.73,0,0,0-2.46-13.09q-2.46-5.24-5.77-7.47A24.39,24.39,0,0,0,47.19,4c-2.73-.71-4.6-1.18-5.62-1.38ZM86.06,8V114.85a130.27,130.27,0,0,0,23.4,2.15q22,0,37.34-11.31t15.31-41.95q0-25.25-13.47-41.49T107.77,6A121.49,121.49,0,0,0,86.06,8Z" transform="translate(-37.99 0.5)"/></svg>