<svg id="Layer_1" data-name="Layer 1" xmlns="http://www.w3.org/2000/svg" viewBox="0 0 414.42 454.54"><defs><style>.cls-1{fill:#231f20;stroke:#231f20;stroke-miterlimit:10;}</style></defs><path class="cls-1" d="M427.55,387.16l5.8,3.79q-24.23,27.76-47.45,45.18t-51.23,17.41A104.28,104.28,0,0,1,317,452,155.47,155.47,0,0,1,294.66,446a287.46,287.46,0,0,1-31.42-13.12q-31-14.64-85.31-42.4a48.6,48.6,0,0,0-6.05-3.29q-21.47-6.56-31.17-10.22t-25.37-12.62a172.73,172.73,0,0,1-31.42-23.59,203.42,203.42,0,0,1-29.4-34.58A188.75,188.75,0,0,1,36.09,272.2a202.13,202.13,0,0,1-11.86-38.36,191.53,191.53,0,0,1-4-38.24q0-55.28,27.51-100.32t72.82-70.17A197.48,197.48,0,0,1,217.81,0,195,195,0,0,1,413.16,196.11a197.4,197.4,0,0,1-15.77,77,193.65,193.65,0,0,1-45.81,66.12,215,215,0,0,1-25,20.7,156.06,156.06,0,0,1-22.08,12.87,178.11,178.11,0,0,1-22.34,8.71q-11.61,3.64-22.46,6.18v1.26q1.52,0,10.85,5.05,33.57,19.17,49,23.35a128.56,128.56,0,0,0,33.57,4.16q22.47,0,36.47-7.07t35-25c.33,0,.88-.38,1.64-1.14S427.38,387.16,427.55,387.16ZM368.74,198.63q0-55.51-15.14-92.75T315.11,48.21q-23.36-20.45-48.59-28.52a155.12,155.12,0,0,0-99.56.25q-25.64,8.32-49.22,29.28T79.5,106.38q-14.64,36.23-14.64,88.21,0,50.73,13.38,87.45t36.6,59.19A137.17,137.17,0,0,0,146.64,364a141.49,141.49,0,0,0,35.71,12.74,176.28,176.28,0,0,0,36.47,3.91,151.48,151.48,0,0,0,59.94-11.86,126.86,126.86,0,0,0,47.07-34.07Q368.75,284.69,368.74,198.63Z" transform="translate(-19.69 0.5)"/></svg>