<svg id="Layer_1" data-name="Layer 1" xmlns="http://www.w3.org/2000/svg" viewBox="0 0 104.55 114.39"><defs><style>.cls-1{fill:#231f20;stroke:#231f20;stroke-miterlimit:10;}</style></defs><path class="cls-1" d="M106.89,96.79l1.45.95A79.12,79.12,0,0,1,96.48,109a20.89,20.89,0,0,1-12.81,4.36,26.29,26.29,0,0,1-4.42-.38,39.71,39.71,0,0,1-5.58-1.52,70.16,70.16,0,0,1-7.86-3.28q-7.76-3.66-21.33-10.6A12.35,12.35,0,0,0,43,96.79c-3.58-1.09-6.17-1.94-7.79-2.55a46.94,46.94,0,0,1-6.34-3.16A43.11,43.11,0,0,1,21,85.18a50.91,50.91,0,0,1-7.35-8.64A47.79,47.79,0,0,1,9,68.05a50.7,50.7,0,0,1-3-9.59,48.21,48.21,0,0,1,5.87-34.64A48.6,48.6,0,0,1,30.13,6.28,49.33,49.33,0,0,1,54.45,0,48.81,48.81,0,0,1,89.12,14.35,49.33,49.33,0,0,1,99.35,68.27,48.32,48.32,0,0,1,87.89,84.8,54.08,54.08,0,0,1,81.65,90a40.29,40.29,0,0,1-5.52,3.21,43.2,43.2,0,0,1-5.59,2.18q-2.9.91-5.61,1.55v.31a12.14,12.14,0,0,1,2.71,1.26q8.39,4.8,12.24,5.84a31.82,31.82,0,0,0,8.39,1,20.37,20.37,0,0,0,9.12-1.76,47.14,47.14,0,0,0,8.74-6.25c.08,0,.22-.1.41-.28S106.84,96.79,106.89,96.79ZM92.19,49.66q0-13.89-3.79-23.19T78.78,12.05A34.43,34.43,0,0,0,66.63,4.92a40.47,40.47,0,0,0-12.3-2A40.78,40.78,0,0,0,41.74,5,35,35,0,0,0,29.43,12.3a37.58,37.58,0,0,0-9.55,14.3q-3.66,9-3.66,22,0,12.68,3.34,21.86a38.61,38.61,0,0,0,9.15,14.8A34.78,34.78,0,0,0,36.66,91a35.41,35.41,0,0,0,8.93,3.18,44.23,44.23,0,0,0,9.12,1,38,38,0,0,0,15-3,31.79,31.79,0,0,0,11.77-8.52Q92.19,71.18,92.19,49.66Z" transform="translate(-4.55 0.5)"/></svg>