<svg id="Layer_1" data-name="Layer 1" xmlns="http://www.w3.org/2000/svg" viewBox="0 0 25.23 29.35"><defs><style>.cls-1{fill:#231f20;stroke:#231f20;stroke-miterlimit:10;}</style></defs><path class="cls-1" d="M2.44.4H2.06V0h9.81a9.86,9.86,0,0,1,4,.73,6.85,6.85,0,0,1,2.56,1.86A7.29,7.29,0,0,1,19.75,5a8,8,0,0,1,.4,2.47,7,7,0,0,1-.65,3,6.34,6.34,0,0,1-2,2.44,7.61,7.61,0,0,1-3.34,1.38v.08a11.82,11.82,0,0,1,4.7,4.89l2.56,4.33a13.53,13.53,0,0,0,2.78,3.67,4.19,4.19,0,0,0,2.07.87v.31H21.13l-.62-.82-.61-.84-.57-.87a6.42,6.42,0,0,0-.45-.67l-3.39-5.6a13.88,13.88,0,0,0-2.09-2.78,8,8,0,0,0-2-1.53,5.8,5.8,0,0,0-1.66-.58A12.63,12.63,0,0,0,8,14.55V24.92c0,2,1,3,3.07,3.12v.31h-9V28a4.35,4.35,0,0,0,1.5-.32,2.38,2.38,0,0,0,1.09-1,3.41,3.41,0,0,0,.43-1.84V3.48A3,3,0,0,0,4.25,1.1,2.76,2.76,0,0,0,2.44.4ZM8,13.8H9.62a10.36,10.36,0,0,0,4.17-.73A4.87,4.87,0,0,0,16.15,11a7,7,0,0,0,.73-3.32,8.24,8.24,0,0,0-.66-3.21A5.87,5.87,0,0,0,14,1.82,7.41,7.41,0,0,0,9.78.75,7.78,7.78,0,0,0,8,.92Z" transform="translate(-1.56 0.5)"/></svg>