<svg id="Layer_1" data-name="Layer 1" xmlns="http://www.w3.org/2000/svg" viewBox="0 0 388.65 454.54"><defs><style>.cls-1{fill:#231f20;stroke:#231f20;stroke-miterlimit:10;}</style></defs><path class="cls-1" d="M39.1,6.47H33V0H190q37.88,0,64.2,11.7t40.95,29.71a115.45,115.45,0,0,1,20.93,38,130.54,130.54,0,0,1,6.32,39.41,112.74,112.74,0,0,1-10.32,47.26q-10.32,22.63-31.71,38.95t-53.42,22.17v1.24q40.63,19.69,75.12,78.2L343,376q27.71,46.5,44.49,58.81t33.1,13.86v4.92H338.08c-3.5-4.51-6.77-8.87-9.85-13.08s-6.38-8.67-9.86-13.4q-3.09-4.62-9.08-14c-4-6.25-6.42-9.8-7.24-10.62l-54.19-89.6q-16.32-27.4-33.4-44.49t-31.87-24.48q-14.79-7.4-26.64-9.24a183.71,183.71,0,0,0-27.86-1.84v166q0,48.35,49.26,49.88v4.92H33v-4.92a68.83,68.83,0,0,0,24-5.08q10.47-4.46,17.4-15.4t6.93-29.4v-343q0-27.09-13.24-38.18T39.1,6.47Zm89,214.3H154q40.65,0,66.66-11.7t37.72-33.41Q270,154,270,122.55a132,132,0,0,0-10.47-51.27Q249.08,46.18,224,29.1T156.42,12q-17.25,0-28.33,2.77Z" transform="translate(-32.45 0.5)"/></svg>