<svg id="Layer_1" data-name="Layer 1" xmlns="http://www.w3.org/2000/svg" viewBox="0 0 49.46 57.69"><defs><style>.cls-1{fill:#231f20;stroke:#231f20;stroke-miterlimit:10;}</style></defs><path class="cls-1" d="M4.89.81H4.12V0H23.75a19.78,19.78,0,0,1,8,1.46,13.54,13.54,0,0,1,5.12,3.72,14.41,14.41,0,0,1,2.62,4.75,16.53,16.53,0,0,1,.79,4.93A14,14,0,0,1,39,20.76a12.66,12.66,0,0,1-4,4.87,15.3,15.3,0,0,1-6.67,2.77v.16q5.07,2.46,9.39,9.77L42.88,47q3.45,5.82,5.56,7.36a8.42,8.42,0,0,0,4.13,1.73v.61H42.26c-.44-.56-.85-1.11-1.23-1.63L39.8,53.38c-.26-.38-.64-1-1.14-1.75s-.8-1.22-.9-1.33L31,39.1a28.82,28.82,0,0,0-4.17-5.56,16.19,16.19,0,0,0-4-3.06,11.6,11.6,0,0,0-3.33-1.15A22,22,0,0,0,16,29.1V49.84q0,6,6.16,6.24v.61h-18v-.61a8.59,8.59,0,0,0,3-.64,4.75,4.75,0,0,0,2.17-1.92,6.79,6.79,0,0,0,.87-3.68V7q0-3.39-1.65-4.78A5.55,5.55,0,0,0,4.89.81ZM16,27.6h3.23a20.37,20.37,0,0,0,8.34-1.47A9.56,9.56,0,0,0,32.29,22a13.78,13.78,0,0,0,1.46-6.64,16.54,16.54,0,0,0-1.3-6.41A11.93,11.93,0,0,0,28,3.64Q24.87,1.49,19.55,1.5A15,15,0,0,0,16,1.85Z" transform="translate(-3.62 0.5)"/></svg>