<svg id="Layer_1" data-name="Layer 1" xmlns="http://www.w3.org/2000/svg" viewBox="0 0 97.92 114.39"><defs><style>.cls-1{fill:#231f20;stroke:#231f20;stroke-miterlimit:10;}</style></defs><path class="cls-1" d="M9.77,1.62H8.23V0H47.49a39.44,39.44,0,0,1,16,2.93,27,27,0,0,1,10.24,7.42A28.75,28.75,0,0,1,79,19.86a32.72,32.72,0,0,1,1.58,9.85A28.16,28.16,0,0,1,78,41.53a25.45,25.45,0,0,1-7.93,9.74,30.77,30.77,0,0,1-13.35,5.54v.31Q66.89,62,75.51,76.67L85.75,94q6.93,11.63,11.11,14.7a16.74,16.74,0,0,0,8.29,3.46v1.24H84.52c-.88-1.13-1.7-2.22-2.47-3.28l-2.46-3.34c-.51-.77-1.27-1.94-2.27-3.51a25.93,25.93,0,0,0-1.81-2.65L62,78.21a56.74,56.74,0,0,0-8.35-11.13,32,32,0,0,0-8-6.11A22.7,22.7,0,0,0,39,58.66a45.56,45.56,0,0,0-7-.47V99.68q0,12.09,12.32,12.47v1.24H8.23v-1.24a17.07,17.07,0,0,0,6-1.27A9.62,9.62,0,0,0,18.59,107a13.7,13.7,0,0,0,1.73-7.36V13.93q0-6.76-3.31-9.54A11,11,0,0,0,9.77,1.62ZM32,55.19h6.46q10.17,0,16.67-2.92a19.18,19.18,0,0,0,9.43-8.36A27.63,27.63,0,0,0,67.5,30.64a33.06,33.06,0,0,0-2.61-12.82A23.86,23.86,0,0,0,56,7.27Q49.72,3,39.1,3A30.08,30.08,0,0,0,32,3.69Z" transform="translate(-7.73 0.5)"/></svg>