<svg id="Layer_1" data-name="Layer 1" xmlns="http://www.w3.org/2000/svg" viewBox="0 0 194.83 227.77"><defs><style>.cls-1{fill:#231f20;stroke:#231f20;stroke-miterlimit:10;}</style></defs><path class="cls-1" d="M19.55,3.23H16.47V0H95q18.93,0,32.1,5.85t20.47,14.86a57.58,57.58,0,0,1,10.47,19,65.41,65.41,0,0,1,3.16,19.71A56.35,56.35,0,0,1,156,83.06a51,51,0,0,1-15.86,19.47q-10.69,8.16-26.71,11.09v.61q20.33,9.85,37.57,39.11L171.5,188q13.86,23.25,22.25,29.4t16.55,6.93v2.46H169c-1.75-2.25-3.39-4.44-4.93-6.54l-4.92-6.7q-1.55-2.31-4.55-7a55.52,55.52,0,0,0-3.61-5.31l-27.1-44.8a113.77,113.77,0,0,0-16.7-22.25q-8.55-8.55-15.94-12.24A46.56,46.56,0,0,0,78,117.31,92.65,92.65,0,0,0,64,116.39v83q0,24.16,24.63,24.94v2.46H16.47v-2.46a34.26,34.26,0,0,0,12-2.54,19.18,19.18,0,0,0,8.7-7.7q3.47-5.46,3.46-14.7V27.87q0-13.56-6.62-19.09A22,22,0,0,0,19.55,3.23ZM64,110.38H77q20.32,0,33.34-5.85t18.85-16.7Q135,77,135,61.27a66,66,0,0,0-5.23-25.63Q124.55,23.1,112,14.55T78.21,6A60.14,60.14,0,0,0,64,7.39Z" transform="translate(-15.97 0.5)"/></svg>