<svg id="Layer_1" data-name="Layer 1" xmlns="http://www.w3.org/2000/svg" viewBox="0 0 16.56 29.35"><defs><style>.cls-1{fill:#231f20;stroke:#231f20;stroke-miterlimit:10;}</style></defs><path class="cls-1" d="M20.62,5.81h-.29a5.93,5.93,0,0,0-1.72-3.46A5.2,5.2,0,0,0,14.74.87,5.27,5.27,0,0,0,12,1.6a5,5,0,0,0-1.88,2,6.24,6.24,0,0,0-.66,2.91,6.12,6.12,0,0,0,.39,2.26A5.13,5.13,0,0,0,11,10.52a10.29,10.29,0,0,0,1.83,1.41c.7.44,1.65,1,2.84,1.65a21.53,21.53,0,0,1,4.64,3.27A6,6,0,0,1,22,21.32a6.83,6.83,0,0,1-3.59,6,8.92,8.92,0,0,1-4.48,1,11.08,11.08,0,0,1-3-.36,15.81,15.81,0,0,1-2.62-1,3,3,0,0,0-.75-.18.5.5,0,0,0-.51.27,8,8,0,0,0-.32,1.2H6.4v-6.8h.31A7.66,7.66,0,0,0,9.29,26,7.24,7.24,0,0,0,14,27.52a6.17,6.17,0,0,0,3.31-.78A4.16,4.16,0,0,0,19,24.86a5.47,5.47,0,0,0,.48-2.21,5.14,5.14,0,0,0-1.39-3.73,17,17,0,0,0-4.23-3c-1.3-.71-2.27-1.26-2.89-1.66A11.42,11.42,0,0,1,9,12.77,7,7,0,0,1,7.5,10.55a7.14,7.14,0,0,1-.57-2.94,7.28,7.28,0,0,1,1-3.67,7.7,7.7,0,0,1,2.88-2.81A8.45,8.45,0,0,1,15,.07a12.11,12.11,0,0,1,3.67.61,1.74,1.74,0,0,0,.79.15c.41,0,.68-.28.83-.83h.29Z" transform="translate(-5.9 0.5)"/></svg>