<svg id="Layer_1" data-name="Layer 1" xmlns="http://www.w3.org/2000/svg" viewBox="0 0 249.89 454.54"><defs><style>.cls-1{fill:#231f20;stroke:#231f20;stroke-miterlimit:10;}</style></defs><path class="cls-1" d="M330,92.89h-4.71q-4.14-31.54-27.58-55.29T235.91,13.86q-25.07,0-44.53,11.8A80.2,80.2,0,0,0,161.31,57.8q-10.62,20.34-10.62,46.59,0,20.35,6.34,36.13a80.29,80.29,0,0,0,18.73,27.86A169.56,169.56,0,0,0,205,190.94q16.81,10.47,45.41,26.4,47.77,26.25,74.32,52.34t26.54,71.51q0,27.72-14.31,53.52T293.71,437q-28.9,16.52-71.66,16.51-26.84,0-47.47-5.75a247.21,247.21,0,0,1-41.88-16.07q-8.85-2.94-12.09-3-6.19,0-8.11,4.43t-5.16,19.16h-5V343.55h5Q118,391.32,148.63,415.8t74.6,24.47q33,0,52.94-12.38t27.57-30.08a88.42,88.42,0,0,0,7.67-35.39q0-36.56-22.27-59.71t-67.68-47.33q-31.26-17.1-46.29-26.54a187,187,0,0,1-30.53-24.48A113.37,113.37,0,0,1,120,168.83q-9.15-20.51-9.14-47,0-30.66,16.22-58.68t46-45q29.78-17,67.53-17a190,190,0,0,1,58.68,9.73Q304,13.28,312,13.27q9.72,0,13.27-13.27H330Z" transform="translate(-101.83 0.5)"/></svg>