<svg id="Layer_1" data-name="Layer 1" xmlns="http://www.w3.org/2000/svg" viewBox="0 0 32.11 57.69"><defs><style>.cls-1{fill:#231f20;stroke:#231f20;stroke-miterlimit:10;}</style></defs><path class="cls-1" d="M41.25,11.61h-.59A11.85,11.85,0,0,0,37.22,4.7a10.4,10.4,0,0,0-7.73-3,10.47,10.47,0,0,0-5.57,1.48,10.08,10.08,0,0,0-3.76,4,12.49,12.49,0,0,0-1.32,5.83,12,12,0,0,0,.79,4.51A10.12,10.12,0,0,0,22,21.05a21.08,21.08,0,0,0,3.65,2.82q2.1,1.3,5.67,3.3a42,42,0,0,1,9.29,6.54Q43.9,37,43.9,42.65a13.63,13.63,0,0,1-1.78,6.69,13.85,13.85,0,0,1-5.41,5.29,17.87,17.87,0,0,1-8.95,2.06A22.17,22.17,0,0,1,21.82,56a31,31,0,0,1-5.23-2,5.8,5.8,0,0,0-1.51-.37,1,1,0,0,0-1,.55,16.66,16.66,0,0,0-.64,2.4h-.63V42.94h.63a15.29,15.29,0,0,0,5.16,9A14.46,14.46,0,0,0,27.9,55a12.49,12.49,0,0,0,6.63-1.54A8.53,8.53,0,0,0,38,49.73a11.22,11.22,0,0,0,1-4.43,10.34,10.34,0,0,0-2.77-7.46,34.21,34.21,0,0,0-8.47-5.92q-3.9-2.13-5.79-3.32a22.8,22.8,0,0,1-3.81-3.06A14.24,14.24,0,0,1,15,21.1a14.28,14.28,0,0,1-1.14-5.88,14.43,14.43,0,0,1,2-7.33,15.08,15.08,0,0,1,5.75-5.62A16.66,16.66,0,0,1,30.08.15a23.73,23.73,0,0,1,7.33,1.21,3.55,3.55,0,0,0,1.59.3c.81,0,1.36-.55,1.66-1.66h.59Z" transform="translate(-12.29 0.5)"/></svg>