<svg id="Layer_1" data-name="Layer 1" xmlns="http://www.w3.org/2000/svg" viewBox="0 0 63.22 114.39"><defs><style>.cls-1{fill:#231f20;stroke:#231f20;stroke-miterlimit:10;}</style></defs><path class="cls-1" d="M82.5,23.22H81.32A23.62,23.62,0,0,0,74.42,9.4Q68.57,3.46,59,3.46a21.08,21.08,0,0,0-11.13,3,20.08,20.08,0,0,0-7.52,8A24.79,24.79,0,0,0,37.67,26.1a24,24,0,0,0,1.59,9,20,20,0,0,0,4.68,7,43.17,43.17,0,0,0,7.3,5.64q4.2,2.61,11.35,6.59Q74.53,60.9,81.17,67.42T87.8,85.3a27.27,27.27,0,0,1-3.57,13.38,27.7,27.7,0,0,1-10.8,10.58q-7.23,4.13-17.92,4.13A44.31,44.31,0,0,1,43.64,112a61.91,61.91,0,0,1-10.46-4,12.09,12.09,0,0,0-3-.74,2,2,0,0,0-2,1.11,32.62,32.62,0,0,0-1.29,4.79H25.58V85.89h1.26Q29.48,97.83,37.16,104t18.65,6.12q8.25,0,13.23-3.1a16.76,16.76,0,0,0,6.89-7.52,22.07,22.07,0,0,0,1.92-8.84q0-9.15-5.56-14.93T55.37,63.84q-7.82-4.28-11.58-6.63a46.27,46.27,0,0,1-7.63-6.12,27.75,27.75,0,0,1-8.44-20.64,28.89,28.89,0,0,1,4.05-14.67A30.36,30.36,0,0,1,43.28,4.53,33.56,33.56,0,0,1,60.16.29,47.56,47.56,0,0,1,74.83,2.73,7.2,7.2,0,0,0,78,3.32q2.43,0,3.32-3.32H82.5Z" transform="translate(-25.08 0.5)"/></svg>