<svg id="Layer_1" data-name="Layer 1" xmlns="http://www.w3.org/2000/svg" viewBox="0 0 125.44 227.77"><defs><style>.cls-1{fill:#231f20;stroke:#231f20;stroke-miterlimit:10;}</style></defs><path class="cls-1" d="M165,46.45h-2.36A47.21,47.21,0,0,0,148.85,18.8Q137.12,6.94,118,6.93a42.13,42.13,0,0,0-22.27,5.9,40.14,40.14,0,0,0-15,16.07,49.61,49.61,0,0,0-5.31,23.3,48.21,48.21,0,0,0,3.17,18.06,40.35,40.35,0,0,0,9.37,13.93,85.63,85.63,0,0,0,14.59,11.28q8.41,5.23,22.71,13.2,23.9,13.13,37.16,26.17t13.27,35.75a54.57,54.57,0,0,1-7.15,26.77q-7.16,12.9-21.6,21.15T111,226.77a89,89,0,0,1-23.74-2.87,124.65,124.65,0,0,1-20.94-8,23.92,23.92,0,0,0-6-1.47c-2.07,0-3.42.73-4.06,2.21a65.24,65.24,0,0,0-2.58,9.58H51.16V171.77h2.51Q59,195.66,74.31,207.9t37.31,12.24q16.5,0,26.46-6.2t13.79-15a44.23,44.23,0,0,0,3.83-17.69q0-18.28-11.13-29.86t-33.84-23.66q-15.63-8.55-23.15-13.27a94,94,0,0,1-15.26-12.24A55.45,55.45,0,0,1,55.44,60.9a57.7,57.7,0,0,1,8.11-29.35,60.54,60.54,0,0,1,23-22.48Q101.45.59,120.32.59a94.9,94.9,0,0,1,29.34,4.87A14.36,14.36,0,0,0,156,6.64q4.86,0,6.63-6.64H165Z" transform="translate(-50.66 0.5)"/></svg>