<svg id="Layer_1" data-name="Layer 1" xmlns="http://www.w3.org/2000/svg" viewBox="0 0 24.8 29.35"><defs><style>.cls-1{fill:#231f20;stroke:#231f20;stroke-miterlimit:10;}</style></defs><path class="cls-1" d="M26.07,6.6h-.29c-.13-1.76-.65-2.9-1.54-3.42a6.45,6.45,0,0,0-3.3-.78H15.57V25.08c0,1.92,1,2.91,2.93,3v.3H9.9v-.3a3.36,3.36,0,0,0,2-.7,2.77,2.77,0,0,0,.83-2.27V2.4H7.41a6.38,6.38,0,0,0-3.29.78C3.23,3.7,2.71,4.84,2.57,6.6h-.3V0h.3a3.71,3.71,0,0,0,.51.68,1.81,1.81,0,0,0,.57.37,2.66,2.66,0,0,0,.81.22,7.32,7.32,0,0,0,1.11.07h17.5A3.17,3.17,0,0,0,25.78,0h.29Z" transform="translate(-1.77 0.5)"/></svg>