<svg id="Layer_1" data-name="Layer 1" xmlns="http://www.w3.org/2000/svg" viewBox="0 0 381.79 454.54"><defs><style>.cls-1{fill:#231f20;stroke:#231f20;stroke-miterlimit:10;}</style></defs><path class="cls-1" d="M417.17,105.61h-4.7q-3.23-42.24-24.64-54.71T335,38.43h-86V401.32q0,46.07,46.94,47.53v4.69H158.42v-4.69q19.37-.59,32.71-11.3t13.35-36.23V38.43h-86q-31.39,0-52.66,12.47T41.07,105.61H36.38V0h4.69a66.21,66.21,0,0,0,8.21,10.85,30,30,0,0,0,9.1,6,47.79,47.79,0,0,0,13.05,3.52,131.66,131.66,0,0,0,17.75,1H369.06q27.85,0,43.41-21.42h4.7Z" transform="translate(-35.88 0.5)"/></svg>