<svg id="Layer_1" data-name="Layer 1" xmlns="http://www.w3.org/2000/svg" viewBox="0 0 48.6 57.69"><defs><style>.cls-1{fill:#231f20;stroke:#231f20;stroke-miterlimit:10;}</style></defs><path class="cls-1" d="M52.15,13.2h-.59q-.41-5.28-3.08-6.84a13,13,0,0,0-6.6-1.56H31.13V50.17q0,5.74,5.87,5.94v.58H19.8v-.58a6.61,6.61,0,0,0,4.09-1.42q1.66-1.34,1.67-4.52V4.8H14.81A12.82,12.82,0,0,0,8.23,6.36Q5.57,7.92,5.13,13.2H4.55V0h.58a9.59,9.59,0,0,0,1,1.36,3.76,3.76,0,0,0,1.14.75,6,6,0,0,0,1.63.44,17.46,17.46,0,0,0,2.22.13h35A6.35,6.35,0,0,0,51.56,0h.59Z" transform="translate(-4.05 0.5)"/></svg>