<svg id="Layer_1" data-name="Layer 1" xmlns="http://www.w3.org/2000/svg" viewBox="0 0 96.2 114.39"><defs><style>.cls-1{fill:#231f20;stroke:#231f20;stroke-miterlimit:10;}</style></defs><path class="cls-1" d="M104.29,26.4h-1.17Q102.31,15.84,97,12.72a25.94,25.94,0,0,0-13.2-3.11H62.26v90.72q0,11.52,11.74,11.88v1.18H39.6v-1.18a13.38,13.38,0,0,0,8.18-2.82q3.33-2.69,3.34-9.06V9.61H29.63a25.77,25.77,0,0,0-13.17,3.11q-5.31,3.12-6.2,13.68H9.09V0h1.17a16.65,16.65,0,0,0,2.06,2.71,7.55,7.55,0,0,0,2.27,1.51,12.16,12.16,0,0,0,3.27.88,33.28,33.28,0,0,0,4.43.25h70A12.64,12.64,0,0,0,103.12,0h1.17Z" transform="translate(-8.59 0.5)"/></svg>