<svg id="Layer_1" data-name="Layer 1" xmlns="http://www.w3.org/2000/svg" viewBox="0 0 191.39 227.77"><defs><style>.cls-1{fill:#231f20;stroke:#231f20;stroke-miterlimit:10;}</style></defs><path class="cls-1" d="M208.58,52.81h-2.35q-1.6-21.14-12.32-27.36t-26.4-6.23h-43V200.66q0,23,23.47,23.76v2.35H79.21v-2.35a26.64,26.64,0,0,0,16.36-5.64q6.66-5.35,6.67-18.12V19.22h-43q-15.7,0-26.33,6.23T20.54,52.81H18.19V0h2.35a33.43,33.43,0,0,0,4.1,5.43,15.13,15.13,0,0,0,4.55,3,23.63,23.63,0,0,0,6.53,1.76,64.86,64.86,0,0,0,8.87.52H184.53q13.93,0,21.7-10.71h2.35Z" transform="translate(-17.69 0.5)"/></svg>