<svg id="Layer_1" data-name="Layer 1" xmlns="http://www.w3.org/2000/svg" viewBox="0 0 28.33 29.35"><defs><style>.cls-1{fill:#231f20;stroke:#231f20;stroke-miterlimit:10;}</style></defs><path class="cls-1" d="M27.8,27.62H22V23L21.92,23a8.08,8.08,0,0,1-3.59,4.08,10.3,10.3,0,0,1-5,1.3A10.13,10.13,0,0,1,8,26.94a9.06,9.06,0,0,1-3.46-3.47,8.9,8.9,0,0,1-1-3,25.15,25.15,0,0,1-.21-3.29V3.39a4.05,4.05,0,0,0-.49-2.08Q2.38.47.51.32V0H9.19V.32a3.13,3.13,0,0,0-2.44,1.1,3.8,3.8,0,0,0-.53,2V16.91A16.42,16.42,0,0,0,7.07,23a7.18,7.18,0,0,0,2.7,3.28,7.26,7.26,0,0,0,4.08,1.19,9.54,9.54,0,0,0,2.27-.34A7.63,7.63,0,0,0,18.58,26C20.87,24.44,22,21.93,22,18.49V3.39a3.88,3.88,0,0,0-.53-2C21.13.78,20.31.43,19,.32V0h8.83V.32a2.77,2.77,0,0,0-2.46,1.07,4,4,0,0,0-.54,2V24.28A3.34,3.34,0,0,0,25.21,26a2,2,0,0,0,1,.89,8.22,8.22,0,0,0,1.58.44Z" transform="translate(-0.01 0.5)"/></svg>