<svg id="Layer_1" data-name="Layer 1" xmlns="http://www.w3.org/2000/svg" viewBox="0 0 438.35 454.54"><defs><style>.cls-1{fill:#231f20;stroke:#231f20;stroke-miterlimit:10;}</style></defs><path class="cls-1" d="M444.84,441.84H352.16V368.65l-1.5-1.2q-19.2,44.71-57.45,65.4t-79.94,20.69q-47.1,0-84.74-22.49t-55.34-55.5a140.22,140.22,0,0,1-15.9-48.74A407.55,407.55,0,0,1,54,274.17V54.29Q54,34.49,46,21T8.1,5.1V0H147V5.1q-30.6,3.6-39,17.7a60.27,60.27,0,0,0-8.4,31.49V270.57q0,66,13.5,97.48,14.39,33.6,43.19,52.5t65.39,18.9q15.3,0,36.3-5.4a122.8,122.8,0,0,0,39.29-18q54.9-37.5,54.9-120.29V54.29q0-18.28-8.4-32.39T304.16,5.1V0H445.44V5.1q-30.58,1.5-39.29,17.1t-8.7,31.49V388.45q0,17.4,5.85,27.45a32.52,32.52,0,0,0,16.2,14.25,128.76,128.76,0,0,0,25.34,6.9Z" transform="translate(-7.6 0.5)"/></svg>