<svg id="Layer_1" data-name="Layer 1" xmlns="http://www.w3.org/2000/svg" viewBox="0 0 55.67 57.69"><defs><style>.cls-1{fill:#231f20;stroke:#231f20;stroke-miterlimit:10;}</style></defs><path class="cls-1" d="M55.6,55.23H44V46.08l-.19-.15a16.16,16.16,0,0,1-7.18,8.18,20.71,20.71,0,0,1-10,2.58,20.21,20.21,0,0,1-10.59-2.81,18.12,18.12,0,0,1-6.92-6.94,17.65,17.65,0,0,1-2-6.09,51.77,51.77,0,0,1-.41-6.58V6.79a8.15,8.15,0,0,0-1-4.17Q4.76.94,1,.64V0H18.37V.64c-2.55.3-4.17,1-4.87,2.21a7.54,7.54,0,0,0-1.05,3.94v27q0,8.25,1.69,12.19a14.36,14.36,0,0,0,13.57,8.92,18.57,18.57,0,0,0,4.54-.67A15.38,15.38,0,0,0,37.16,52Q44,47.32,44,37V6.79a7.74,7.74,0,0,0-1.05-4Q41.92,1,38,.64V0H55.68V.64q-3.82.18-4.91,2.13a8,8,0,0,0-1.09,3.94V48.56A6.8,6.8,0,0,0,50.42,52a4.07,4.07,0,0,0,2,1.78,15.64,15.64,0,0,0,3.16.86Z" transform="translate(-0.51 0.5)"/></svg>