<svg id="Layer_1" data-name="Layer 1" xmlns="http://www.w3.org/2000/svg" viewBox="0 0 110.34 114.39"><defs><style>.cls-1{fill:#231f20;stroke:#231f20;stroke-miterlimit:10;}</style></defs><path class="cls-1" d="M111.21,110.46H88V92.16l-.38-.3Q82.86,103,73.3,108.21a41.4,41.4,0,0,1-20,5.18,40.53,40.53,0,0,1-21.19-5.63A36.27,36.27,0,0,1,18.3,93.89a35.07,35.07,0,0,1-4-12.19,101.85,101.85,0,0,1-.82-13.16v-55a16.09,16.09,0,0,0-2-8.32q-2-3.37-9.49-4V0H36.75V1.27Q29.1,2.17,27,5.7a15.08,15.08,0,0,0-2.1,7.87V67.64q0,16.5,3.37,24.37a28.71,28.71,0,0,0,27.15,17.85,37.21,37.21,0,0,0,9.07-1.35,30.71,30.71,0,0,0,9.83-4.5Q88,94.64,88,73.94V13.57a15.52,15.52,0,0,0-2.1-8.1q-2.1-3.52-9.9-4.2V0h35.32V1.27q-7.65.38-9.82,4.28a16,16,0,0,0-2.18,7.87V97.11a13.68,13.68,0,0,0,1.46,6.86,8.16,8.16,0,0,0,4.05,3.57,32.37,32.37,0,0,0,6.34,1.72Z" transform="translate(-1.52 0.5)"/></svg>