<svg id="Layer_1" data-name="Layer 1" xmlns="http://www.w3.org/2000/svg" viewBox="0 0 219.68 227.77"><defs><style>.cls-1{fill:#231f20;stroke:#231f20;stroke-miterlimit:10;}</style></defs><path class="cls-1" d="M222.42,220.92H176.07V184.33l-.74-.6q-9.62,22.35-28.72,32.69a82.88,82.88,0,0,1-40,10.35q-23.56,0-42.37-11.25T36.59,187.78a70.2,70.2,0,0,1-8-24.38A203.69,203.69,0,0,1,27,137.08V27.15q0-9.9-4-16.65t-19-7.95V0H73.49V2.55Q58.19,4.35,54,11.4a30.19,30.19,0,0,0-4.2,15.75V135.28q0,33,6.75,48.75a57.48,57.48,0,0,0,54.3,35.69A74.42,74.42,0,0,0,129,217a61.47,61.47,0,0,0,19.65-9q27.45-18.74,27.44-60.14V27.15a31,31,0,0,0-4.2-16.2q-4.19-7-19.79-8.4V0h70.64V2.55q-15.3.75-19.65,8.55a32,32,0,0,0-4.34,15.75V194.23q0,8.7,2.92,13.72a16.2,16.2,0,0,0,8.1,7.12,64.38,64.38,0,0,0,12.67,3.45Z" transform="translate(-3.55 0.5)"/></svg>