<svg id="Layer_1" data-name="Layer 1" xmlns="http://www.w3.org/2000/svg" viewBox="0 0 26.61 29.35"><defs><style>.cls-1{fill:#231f20;stroke:#231f20;stroke-miterlimit:10;}</style></defs><path class="cls-1" d="M27,0V.32A3.33,3.33,0,0,0,25.23,1a5.05,5.05,0,0,0-1.18,1.51C23.73,3.16,23.36,4,23,5a1,1,0,0,0-.19.45l-8,22.89h-.26L5.1,3.58A.53.53,0,0,0,5,3.36,5.12,5.12,0,0,0,3.59,1,3.29,3.29,0,0,0,1.37.32V0h9.07V.32A5.21,5.21,0,0,0,8.61.77c-.47.22-.7.76-.7,1.61a6.53,6.53,0,0,0,.3,1.39,1.18,1.18,0,0,1,.07.2c0,.06,0,.12,0,.15l7.26,19.39h.08l6.22-18a9.22,9.22,0,0,0,.65-2.8c0-1-.2-1.61-.62-1.87A4,4,0,0,0,20,.32V0Z" transform="translate(-0.87 0.5)"/></svg>