<svg id="Layer_1" data-name="Layer 1" xmlns="http://www.w3.org/2000/svg" viewBox="0 0 410.75 454.54"><defs><style>.cls-1{fill:#231f20;stroke:#231f20;stroke-miterlimit:10;}</style></defs><path class="cls-1" d="M431.65,0V5.1q-16.81,2.1-27.9,11.4a78.83,78.83,0,0,0-18.9,24.14q-7.8,14.85-17.7,39.45-1.5,1.5-3,7.2L236.37,453.54h-4.2L81.59,57.29a9.49,9.49,0,0,0-1.2-3.6q-8.7-25.48-23-37.19T21.9,5.1V0H167.08V5.1q-18.3,1.8-29.4,7.2t-11.1,25.8q0,5.38,4.8,22.19a30.6,30.6,0,0,1,1.05,3.15q.45,1.65.75,2.55L249.27,376.15h1.2L350.06,87.29q10.49-29.7,10.49-44.7,0-23.68-10-30T320.66,5.1V0Z" transform="translate(-21.4 0.5)"/></svg>