<svg id="Layer_1" data-name="Layer 1" xmlns="http://www.w3.org/2000/svg" viewBox="0 0 52.22 57.69"><defs><style>.cls-1{fill:#231f20;stroke:#231f20;stroke-miterlimit:10;}</style></defs><path class="cls-1" d="M54,0V.64a6.55,6.55,0,0,0-3.49,1.42,9.8,9.8,0,0,0-2.36,3q-1,1.86-2.22,4.93a2.33,2.33,0,0,0-.37.9l-16,45.78H29L10.2,7.16a1.15,1.15,0,0,0-.15-.45A10.14,10.14,0,0,0,7.18,2.06,6.62,6.62,0,0,0,2.74.64V0H20.88V.64a11,11,0,0,0-3.67.9c-.92.45-1.39,1.52-1.39,3.22a13.18,13.18,0,0,0,.6,2.78,2.23,2.23,0,0,1,.13.39c0,.14.07.24.1.32L31.16,47h.15L43.76,10.91a18.8,18.8,0,0,0,1.31-5.59q0-3-1.26-3.75A8.1,8.1,0,0,0,40.08.64V0Z" transform="translate(-2.24 0.5)"/></svg>