<svg id="Layer_1" data-name="Layer 1" xmlns="http://www.w3.org/2000/svg" viewBox="0 0 103.44 114.39"><defs><style>.cls-1{fill:#231f20;stroke:#231f20;stroke-miterlimit:10;}</style></defs><path class="cls-1" d="M107.91,0V1.27a13.11,13.11,0,0,0-7,2.85,19.77,19.77,0,0,0-4.73,6q-2,3.72-4.42,9.86a4.47,4.47,0,0,0-.75,1.8L59.09,113.39H58L20.4,14.32a2.3,2.3,0,0,0-.3-.9Q17.92,7,14.36,4.12A13.23,13.23,0,0,0,5.47,1.27V0h36.3V1.27a21.92,21.92,0,0,0-7.35,1.8q-2.78,1.35-2.77,6.45a26.31,26.31,0,0,0,1.2,5.55c.1.25.18.52.26.79s.14.49.19.64L62.32,94h.3L87.51,21.82q2.63-7.42,2.63-11.17,0-5.93-2.51-7.5a16.17,16.17,0,0,0-7.47-1.88V0Z" transform="translate(-4.97 0.5)"/></svg>