<svg id="Layer_1" data-name="Layer 1" xmlns="http://www.w3.org/2000/svg" viewBox="0 0 205.88 227.77"><defs><style>.cls-1{fill:#231f20;stroke:#231f20;stroke-miterlimit:10;}</style></defs><path class="cls-1" d="M215.82,0V2.55a26.25,26.25,0,0,0-13.95,5.7,39.18,39.18,0,0,0-9.44,12.07q-3.92,7.42-8.86,19.72a9.24,9.24,0,0,0-1.5,3.6L118.18,226.77h-2.1L40.79,28.65a4.61,4.61,0,0,0-.6-1.8Q35.84,14.1,28.72,8.25T11,2.55V0H83.54V2.55q-9.17.9-14.7,3.6t-5.55,12.9q0,2.7,2.4,11.1a14.45,14.45,0,0,1,.53,1.57c.15.55.27,1,.37,1.28l58.05,155.08h.6L175,43.64q5.24-14.83,5.24-22.34,0-11.85-5-15T160.33,2.55V0Z" transform="translate(-10.45 0.5)"/></svg>