<svg id="Layer_1" data-name="Layer 1" xmlns="http://www.w3.org/2000/svg" viewBox="0 0 29.35 21.9"><defs><style>.cls-1{fill:#231f20;stroke:#231f20;stroke-miterlimit:10;}</style></defs><path class="cls-1" d="M28.35,3.72V4a2.9,2.9,0,0,0-1.11.46,3.68,3.68,0,0,0-.95,1.12,12.11,12.11,0,0,0-1,2.26L19.6,24.62h-.21L14.19,7.8h-.07L8.47,24.62H8.26L2.47,6.07a3.53,3.53,0,0,0-.76-1.42,2,2,0,0,0-.8-.55A6.06,6.06,0,0,0,0,4V3.72H6.32V4a1.8,1.8,0,0,0-1.25.5,1.49,1.49,0,0,0-.43,1.09,4.17,4.17,0,0,0,.24,1.24l4.3,13.75h.05L13.85,6.79l-.2-.62a4.16,4.16,0,0,0-.82-1.53A2.36,2.36,0,0,0,11.1,4V3.72h6.51V4c-.74,0-1.22.2-1.43.57a2,2,0,0,0-.33,1,4,4,0,0,0,.21,1.24L20.3,20.54h.06L24.68,7.8A9.72,9.72,0,0,0,25,6.6a5.76,5.76,0,0,0,.16-1.18c0-.62-.14-1-.41-1.17A3.15,3.15,0,0,0,23.47,4V3.72Z" transform="translate(0.5 -3.22)"/></svg>