<svg id="Layer_1" data-name="Layer 1" xmlns="http://www.w3.org/2000/svg" viewBox="0 0 454.54 335.35"><defs><style>.cls-1{fill:#231f20;stroke:#231f20;stroke-miterlimit:10;}</style></defs><path class="cls-1" d="M453.54,59.6v3.75a46.39,46.39,0,0,0-17.69,7.41q-7.74,5.43-15.26,17.91t-15.7,36.16L313.57,394h-3.32L227.1,124.83H226L135.55,394h-3.31L39.58,97.19q-5.09-15.7-12.16-22.78T14.48,65.68A75.42,75.42,0,0,0,0,63.35V59.6H101.06v3.75q-13.28.9-20,8A24.33,24.33,0,0,0,74.3,88.78q0,8,3.76,19.91l68.77,220h.89l73.86-220-3.1-10A65.9,65.9,0,0,0,205.21,74.3q-8.85-10.06-27.64-10.95V59.6H281.72v3.75q-17.69.23-22.88,9.07t-5.2,16.36A65.16,65.16,0,0,0,257,108.69l67.88,220h.89l69.21-203.88a148.75,148.75,0,0,0,5.64-19.24,86.48,86.48,0,0,0,2.55-18.8q0-15-6.53-18.79t-21.12-4.65V59.6Z" transform="translate(0.5 -59.1)"/></svg>