<svg id="Layer_1" data-name="Layer 1" xmlns="http://www.w3.org/2000/svg" viewBox="0 0 57.69 42.79"><defs><style>.cls-1{fill:#231f20;stroke:#231f20;stroke-miterlimit:10;}</style></defs><path class="cls-1" d="M56.69,7.45v.47a5.75,5.75,0,0,0-2.21.93,7.32,7.32,0,0,0-1.91,2.23,25.62,25.62,0,0,0-2,4.52L39.2,49.24h-.42L28.39,15.6h-.14L16.94,49.24h-.41L5,12.15A7.22,7.22,0,0,0,3.43,9.3,4,4,0,0,0,1.81,8.21,8.9,8.9,0,0,0,0,7.92V7.45H12.63v.47a3.64,3.64,0,0,0-2.5,1,3.06,3.06,0,0,0-.84,2.19,8.45,8.45,0,0,0,.47,2.49l8.59,27.5h.11l9.24-27.5-.39-1.25a8.17,8.17,0,0,0-1.66-3.05A4.66,4.66,0,0,0,22.2,7.92V7.45h13v.47c-1.48,0-2.43.4-2.87,1.13a4.14,4.14,0,0,0-.65,2,8.13,8.13,0,0,0,.42,2.49l8.49,27.5h.11L49.37,15.6a18,18,0,0,0,.7-2.4,10.94,10.94,0,0,0,.32-2.35c0-1.25-.27-2-.81-2.35a6.38,6.38,0,0,0-2.64-.58V7.45Z" transform="translate(0.5 -6.95)"/></svg>