<svg id="Layer_1" data-name="Layer 1" xmlns="http://www.w3.org/2000/svg" viewBox="0 0 114.39 84.59"><defs><style>.cls-1{fill:#231f20;stroke:#231f20;stroke-miterlimit:10;}</style></defs><path class="cls-1" d="M113.39,14.9v.94A11.61,11.61,0,0,0,109,17.69a14.36,14.36,0,0,0-3.81,4.48,50.17,50.17,0,0,0-3.93,9L78.39,98.49h-.83L56.77,31.21H56.5L33.89,98.49h-.83L9.9,24.3a14.43,14.43,0,0,0-3-5.7,7.89,7.89,0,0,0-3.24-2.18A18.52,18.52,0,0,0,0,15.84V14.9H25.27v.94a7.28,7.28,0,0,0-5,2,6.09,6.09,0,0,0-1.68,4.36,17.11,17.11,0,0,0,.94,5l17.19,55h.22l18.46-55-.77-2.49a16.61,16.61,0,0,0-3.32-6.11c-1.47-1.67-3.77-2.59-6.91-2.73V14.9h26v.94c-3,0-4.85.79-5.71,2.26a8.19,8.19,0,0,0-1.31,4.09,16.13,16.13,0,0,0,.83,5l17,55h.22l17.31-51a38.2,38.2,0,0,0,1.41-4.81,21.17,21.17,0,0,0,.63-4.7c0-2.51-.53-4.08-1.62-4.7a12.57,12.57,0,0,0-5.29-1.16V14.9Z" transform="translate(0.5 -14.4)"/></svg>