<svg id="Layer_1" data-name="Layer 1" xmlns="http://www.w3.org/2000/svg" viewBox="0 0 227.77 168.17"><defs><style>.cls-1{fill:#231f20;stroke:#231f20;stroke-miterlimit:10;}</style></defs><path class="cls-1" d="M226.77,29.8v1.88a23.07,23.07,0,0,0-8.84,3.7q-3.88,2.71-7.64,9t-7.84,18.08L156.78,197h-1.65L113.55,62.42H113L67.78,197H66.12L19.79,48.59q-2.53-7.85-6.08-11.38T7.24,32.84A37.82,37.82,0,0,0,0,31.68V29.8H50.53v1.88q-6.63.43-10,4a12.16,12.16,0,0,0-3.37,8.73,34.51,34.51,0,0,0,1.88,10l34.39,110h.44l36.93-110-1.55-5a33,33,0,0,0-6.64-12.22q-4.42-5-13.82-5.47V29.8h52.08v1.88q-8.85.11-11.44,4.53a16.31,16.31,0,0,0-2.6,8.18,32.55,32.55,0,0,0,1.66,10l33.94,110h.44L197.47,62.42a75.91,75.91,0,0,0,2.82-9.62,43,43,0,0,0,1.27-9.4q0-7.51-3.26-9.4t-10.56-2.32V29.8Z" transform="translate(0.5 -29.3)"/></svg>