<svg id="Layer_1" data-name="Layer 1" xmlns="http://www.w3.org/2000/svg" viewBox="0 0 448.39 454.54"><defs><style>.cls-1{fill:#231f20;stroke:#231f20;stroke-miterlimit:10;}</style></defs><path class="cls-1" d="M423.68,0V5.23a94,94,0,0,0-30.18,9.09Q378.73,21.55,359,46.8q-22.17,26.49-25.25,31.41L237.09,210,351.93,381.8q21.26,32,38.8,46.34t30.48,17.4a126.81,126.81,0,0,0,29.25,3.08v4.92H279.58v-4.92q21.85-.3,28.48-10.16T314.68,420q0-12.62-12.63-32L210,249.09,117.31,377.18Q99.76,400.9,99.76,418.75q0,8.94,7.39,19.71t31.71,10.16v4.92H3.08v-4.92q40,.92,67.74-32.95,18.77-22.47,20.63-25.25L202,238,89.6,68.35q-25.86-40-43.41-50.65A90.14,90.14,0,0,0,6.47,5.23V0H169.66V5.23q-22.17,1.24-30,9.7t-7.85,18.63q0,16.34,15.71,41L229.7,198.29,320.53,74.51q19.39-27.39,19.4-42.8,0-8-6.32-16.62T305.13,5.23V0Z" transform="translate(-2.58 0.5)"/></svg>