<svg id="Layer_1" data-name="Layer 1" xmlns="http://www.w3.org/2000/svg" viewBox="0 0 56.92 57.69"><defs><style>.cls-1{fill:#231f20;stroke:#231f20;stroke-miterlimit:10;}</style></defs><path class="cls-1" d="M53,0V.65a12,12,0,0,0-3.77,1.14,14.17,14.17,0,0,0-4.31,4.06q-2.77,3.32-3.16,3.93L29.64,26.25,44,47.73a26.84,26.84,0,0,0,4.85,5.79,10.13,10.13,0,0,0,3.81,2.17,15.68,15.68,0,0,0,3.66.39v.61H35v-.61c1.82,0,3-.45,3.56-1.27a4.19,4.19,0,0,0,.82-2.31,8,8,0,0,0-1.57-4L26.25,31.14l-11.59,16a9.22,9.22,0,0,0-2.19,5.19,4.51,4.51,0,0,0,.92,2.47c.62.9,1.94,1.32,4,1.27v.61H.38v-.61A10.26,10.26,0,0,0,8.85,52c1.57-1.87,2.43-2.93,2.58-3.16l13.82-19L11.2,8.54C9,5.21,7.24,3.1,5.77,2.21A11.36,11.36,0,0,0,.81.65V0h20.4V.65c-1.85.11-3.1.51-3.76,1.22a3.36,3.36,0,0,0-1,2.33,10.22,10.22,0,0,0,2,5.11L28.71,24.79,40.07,9.31Q42.49,5.89,42.49,4a3.5,3.5,0,0,0-.79-2.07C41.18,1.17,40,.76,38.14.65V0Z" transform="translate(0.12 0.5)"/></svg>