<svg id="Layer_1" data-name="Layer 1" xmlns="http://www.w3.org/2000/svg" viewBox="0 0 112.85 114.39"><defs><style>.cls-1{fill:#231f20;stroke:#231f20;stroke-miterlimit:10;}</style></defs><path class="cls-1" d="M105.92,0V1.31a23.37,23.37,0,0,0-7.54,2.27Q94.69,5.4,89.75,11.7q-5.53,6.61-6.31,7.85l-24.17,33L88,95.45q5.31,8,9.71,11.59t7.62,4.34a31.24,31.24,0,0,0,7.31.77v1.24H69.89v-1.24c3.64-.05,6-.89,7.12-2.54A8.42,8.42,0,0,0,78.67,105c0-2.11-1.06-4.78-3.16-8l-23-34.72-23.17,32q-4.38,5.92-4.38,10.39a8.89,8.89,0,0,0,1.84,4.92q1.86,2.7,7.93,2.54v1.24H.77v-1.24q10,.24,16.93-8.23,4.69-5.62,5.16-6.31L50.49,59.5,22.4,17.09q-6.46-10-10.86-12.66A22.5,22.5,0,0,0,1.61,1.31V0h40.8V1.31c-3.69.2-6.2,1-7.5,2.42a6.72,6.72,0,0,0-2,4.66q0,4.08,3.93,10.24L57.42,49.57,80.13,18.63Q85,11.78,85,7.93A7.11,7.11,0,0,0,83.4,3.77C82.35,2.33,80,1.51,76.28,1.31V0Z" transform="translate(-0.27 0.5)"/></svg>