<svg id="Layer_1" data-name="Layer 1" xmlns="http://www.w3.org/2000/svg" viewBox="0 0 224.69 227.77"><defs><style>.cls-1{fill:#231f20;stroke:#231f20;stroke-miterlimit:10;}</style></defs><path class="cls-1" d="M211.84,0V2.62a46.66,46.66,0,0,0-15.08,4.54q-7.39,3.62-17.25,16.24-11.08,13.24-12.62,15.7L118.55,105,176,190.9q10.62,16,19.39,23.17t15.25,8.7a63.09,63.09,0,0,0,14.62,1.54v2.46H139.79v-2.46c7.28-.1,12-1.8,14.24-5.08s3.31-6.36,3.31-9.24q0-6.31-6.31-16l-46-69.43-46.34,64q-8.77,11.86-8.78,20.79,0,4.45,3.7,9.85t15.85,5.08v2.46H1.54v-2.46q20,.47,33.87-16.47,9.39-11.25,10.32-12.63L101,119,44.8,34.18q-12.93-20-21.71-25.33A44.93,44.93,0,0,0,3.23,2.62V0h81.6V2.62q-11.08.61-15,4.85a13.39,13.39,0,0,0-3.93,9.31q0,8.16,7.85,20.48l41.11,61.89,45.41-61.89Q170,23.55,170,15.86a14.25,14.25,0,0,0-3.16-8.32C164.71,4.67,160,3,152.57,2.62V0Z" transform="translate(-1.04 0.5)"/></svg>