<svg id="Layer_1" data-name="Layer 1" xmlns="http://www.w3.org/2000/svg" viewBox="0 0 27.29 29.35"><defs><style>.cls-1{fill:#231f20;stroke:#231f20;stroke-miterlimit:10;}</style></defs><path class="cls-1" d="M27.32,0V.33a4.59,4.59,0,0,0-2.27.59,6.3,6.3,0,0,0-1.54,1.21,19,19,0,0,0-1.2,1.51l-6.62,10V25a2.81,2.81,0,0,0,.92,2.28,3.5,3.5,0,0,0,2.2.8v.31h-9V28A3.25,3.25,0,0,0,12,27.26a3,3,0,0,0,.8-2.3V14.09L5.57,3.27A8,8,0,0,0,3.5.94,4.81,4.81,0,0,0,1,.33V0H11.09V.33a2.52,2.52,0,0,0-2,.66,2,2,0,0,0-.43,1.15,3.58,3.58,0,0,0,.75,1.73l5.91,8.75,5.23-7.89A5.61,5.61,0,0,0,21.78,2a1.46,1.46,0,0,0-.33-1,1.61,1.61,0,0,0-.64-.48,4.63,4.63,0,0,0-.69-.19V0Z" transform="translate(-0.53 0.5)"/></svg>