<svg id="Layer_1" data-name="Layer 1" xmlns="http://www.w3.org/2000/svg" viewBox="0 0 53.57 57.69"><defs><style>.cls-1{fill:#231f20;stroke:#231f20;stroke-miterlimit:10;}</style></defs><path class="cls-1" d="M54.63,0V.65a9.14,9.14,0,0,0-4.52,1.2A12.92,12.92,0,0,0,47,4.25a37.23,37.23,0,0,0-2.38,3L31.39,27.21V49.92a5.58,5.58,0,0,0,1.83,4.56,7,7,0,0,0,4.4,1.6v.61h-18v-.61A6.39,6.39,0,0,0,24,54.52a6,6,0,0,0,1.6-4.6V28.17L11.14,6.54A15.9,15.9,0,0,0,7,1.89,9.68,9.68,0,0,0,2.06.65V0H22.19V.65c-2.05.08-3.37.52-4,1.33a4,4,0,0,0-.86,2.29,7.14,7.14,0,0,0,1.5,3.47L30.69,25.25,41.16,9.47Q43.55,5.93,43.55,4a3,3,0,0,0-.64-2,3.06,3.06,0,0,0-1.29-1A12.51,12.51,0,0,0,40.24.65V0Z" transform="translate(-1.56 0.5)"/></svg>