<svg id="Layer_1" data-name="Layer 1" xmlns="http://www.w3.org/2000/svg" viewBox="0 0 106.15 114.39"><defs><style>.cls-1{fill:#231f20;stroke:#231f20;stroke-miterlimit:10;}</style></defs><path class="cls-1" d="M109.27,0V1.31a18.31,18.31,0,0,0-9,2.38A25.16,25.16,0,0,0,94,8.51a73.05,73.05,0,0,0-4.78,6L62.77,54.42V99.84q0,6.07,3.66,9.12a14,14,0,0,0,8.81,3.19v1.24H39.3v-1.24A12.81,12.81,0,0,0,48,109q3.2-3,3.19-9.2V56.35L22.28,13.09q-4.61-7-8.27-9.32T4.12,1.31V0H44.38V1.31c-4.11.15-6.74,1-7.89,2.65a8,8,0,0,0-1.74,4.58c0,1.65,1,4,3,6.93l23.63,35L82.33,18.94c3.18-4.73,4.77-8.34,4.77-10.86A6,6,0,0,0,85.83,4a6.42,6.42,0,0,0-2.58-1.92,20.77,20.77,0,0,0-2.77-.77V0Z" transform="translate(-3.62 0.5)"/></svg>